<svg width="175" height="56" viewBox="0 0 175 56" fill="none" xmlns="http://www.w3.org/2000/svg">
<path d="M155.895 12.4465C157.755 12.2997 159.709 12.5019 161.533 12.8807C170.277 14.6975 175.481 24.4481 173.681 32.8929C168.132 32.9925 162.487 32.7113 156.917 32.8534C154.689 32.909 151.843 32.9369 149.663 32.701C151.67 36.514 153.131 38.3451 157.845 38.4798C161.042 38.5707 162.746 37.6434 165 35.5077C165.955 35.9984 166.85 36.5755 167.841 36.9667C169.068 37.6449 170.425 38.4784 171.657 39.1903C168.903 42.9418 166.49 45.0394 161.661 45.8773C145.204 48.7352 136.018 31.91 144.594 18.5862C147.176 14.5745 151.31 13.1206 155.895 12.4465ZM149.25 26.3597C151.978 26.1459 156.164 26.266 159.008 26.2674C160.843 26.266 163.695 26.1839 165.447 26.3392C163.971 21.5391 161.247 19.4104 156.103 19.8986C151.963 20.5654 150.55 22.6847 149.25 26.3597Z" fill="#00C3FF"/>
<path d="M37.4351 13.3075C40.1478 13.164 42.9846 13.4249 45.877 13.2012C45.8326 15.895 45.8061 18.5892 45.7971 21.2833C45.7716 25.4424 46.053 30.0801 45.7028 34.1788C45.0675 41.6158 37.8783 46.9742 30.6558 46.0015C26.9957 45.5416 23.6772 43.6211 21.4552 40.6768C17.1303 34.8716 19.1295 26.1793 18.6348 19.3739C18.5289 17.9161 18.5708 14.7363 18.782 13.3147C21.2614 13.1386 24.5699 13.3712 27.3086 13.2325C26.8341 19.3285 27.5128 26.1397 27.2639 32.2979C26.9922 39.0245 34.4373 40.92 36.9919 34.7632C37.3851 33.814 37.1909 29.9454 37.2152 28.7574C37.3201 23.6382 36.9774 18.4125 37.4351 13.3075Z" fill="#00C3FF"/>
<path d="M60.5497 12.4465C63.6449 12.2385 66.9203 13.0194 69.5233 14.7034C71.3749 15.901 72.5512 17.5194 73.8681 19.2344C71.9433 20.4432 68.6986 22.1221 66.6918 23.1747C65.4599 21.5694 64.4198 20.2233 62.2211 19.9272C60.5863 19.6702 58.0858 20.4193 57.8837 22.3443C57.7123 24.0318 61.0302 25.0438 62.287 25.3647C68.514 26.9511 74.5214 28.536 74.2972 36.37C74.1552 41.3944 70.5927 44.4955 65.8627 45.6147C63.7738 46.1083 62.3558 46.1332 60.204 46.0395C59.2079 46.0805 57.0268 45.6894 56.0746 45.3979C52.0023 44.1513 49.9589 42.1459 47.9875 38.5087C49.5224 37.0673 53.2489 35.2099 55.1942 34.4452C55.3612 34.7367 55.5326 35.0282 55.704 35.3183C57.6435 38.6552 61.9047 39.4359 65.0966 37.5082C65.3397 37.0116 65.6019 36.3422 65.8231 35.8192C65.4599 35.0883 65.1918 34.5668 64.4594 34.1449C60.7885 32.0312 56.1786 32.1073 52.6908 29.4809C50.8803 28.1449 49.6893 26.1293 49.392 23.8982C49.0726 21.4818 49.6542 18.4393 51.2201 16.5511C53.7572 13.4943 56.8934 12.8455 60.5497 12.4465Z" fill="#00C3FF"/>
<path d="M96.2537 4.37735C99.0164 4.44956 101.583 4.48164 104.346 4.30762C104.054 14.576 104.404 25.1539 104.398 35.4415C104.397 37.7238 108.049 39.7746 110.312 37.4997C110.86 36.9518 111.252 36.2663 111.446 35.5163C111.749 34.3502 111.541 27.9533 111.576 26.2233C114.441 26.2731 117.308 26.2746 120.175 26.2248L120.16 34.3019C120.369 50.7404 96.0238 49.5334 95.7982 34.7003C95.6561 25.359 95.7879 15.8348 95.7645 6.47529C95.763 5.76718 95.8685 4.97852 96.2537 4.37735Z" fill="#00C3FF"/>
<path d="M77.3236 4.37071C80.1054 4.45992 82.89 4.45288 85.6718 4.34961L85.6835 12.8004C85.6835 14.4934 85.7421 16.7573 85.6044 18.3934C87.5365 18.4035 90.5072 18.4791 92.3558 18.2251C92.2753 20.9545 92.3251 23.8445 92.3427 26.5861C90.7738 26.3576 87.3329 26.4557 85.6015 26.466C85.8314 29.1159 85.2528 34.2941 86.079 36.4796C86.7338 38.2067 91.3334 37.4171 92.1683 37.6061L92.3134 37.8756C92.3265 40.3556 92.3705 42.9132 92.2826 45.3844C89.3661 45.465 86.0028 45.6481 83.1815 44.7809C81.1893 44.1686 79.5297 42.9821 78.5497 41.1056C77.9242 39.9074 77.4906 38.4645 77.3383 37.1213C76.975 33.9059 76.786 6.07667 77.3236 4.37071Z" fill="#00C3FF"/>
<path d="M136.452 4.39717C137.255 4.38882 138.038 4.34282 138.838 4.30078C138.698 6.77739 138.941 9.30981 138.834 11.7177C138.759 13.3772 135.627 11.9333 133.944 13.5026C132.901 14.4754 132.361 15.2473 132.159 16.8782L131.958 18.4066C134.195 18.3788 136.669 18.4482 138.869 18.2461C138.708 20.2471 138.747 24.5618 138.815 26.5862C136.792 26.3738 134.18 26.4529 132.097 26.4543C132.337 31.968 132.1 38.5232 132.17 44.179C132.151 44.6829 132.167 44.6638 131.984 45.1267C131.495 45.5603 124.872 45.3362 123.661 45.3288L123.638 45.1194C123.491 43.7659 123.547 41.8543 123.548 40.448L123.561 32.7048L123.544 22.9619C123.528 16.4694 123.079 9.11323 129.986 5.77339C132.037 4.78125 134.218 4.61558 136.452 4.39717Z" fill="#00C3FF"/>
<path d="M6.90639 13.3054C9.3562 13.1342 12.6128 13.3751 15.3386 13.2256C15.1696 15.3396 15.262 18.5761 15.2632 20.7843L15.2699 34.2903C15.2724 42.5447 16.6428 50.8445 7.45585 54.5037C4.55942 55.2434 3.15141 55.3562 0.144089 55.3475C-0.0350617 53.3274 -0.0399025 49.2185 0.0894432 47.1824C2.50717 47.1048 5.56474 46.9979 6.44336 43.9129C6.88134 42.3748 6.66938 39.448 6.66747 37.7327L6.65107 22.0551C6.64887 20.1224 6.52583 14.8961 6.90639 13.3054Z" fill="#00C3FF"/>
<path d="M9.7813 0.170516C11.3723 -0.276261 13.0806 0.169487 14.2502 1.33682C15.4199 2.50416 15.869 4.21158 15.4253 5.80342C14.9816 7.39512 13.714 8.62398 12.1091 9.01788C9.68403 9.61319 7.22954 8.15391 6.59423 5.73897C5.95893 3.32417 7.37734 0.845809 9.7813 0.170516Z" fill="#00C3FF"/>
<path d="M114.671 13.0827C116.272 12.6422 117.986 13.1053 119.148 14.2921C120.308 15.4789 120.734 17.2024 120.258 18.7931C119.784 20.3839 118.481 21.5912 116.86 21.9463C114.443 22.4756 112.043 20.9826 111.45 18.58C110.857 16.1772 112.285 13.7394 114.671 13.0827Z" fill="#00C3FF"/>
</svg>
