<svg width="60" height="77" viewBox="0 0 60 77" fill="none" xmlns="http://www.w3.org/2000/svg">
<path d="M37.6384 0.04596C40.5139 -0.221813 43.6006 0.679354 45.6203 2.77935C47.8177 5.06392 48.6496 9.04581 49.5626 12.0095L52.6958 22.0213L55.7129 31.5798C56.6545 34.4852 57.6763 37.3747 58.3539 40.3542C62.6213 59.1203 48.4214 76.7248 29.2012 76.5036C21.344 76.3908 13.8502 73.1755 8.35527 67.5578C3.69033 62.7429 0.785689 56.4953 0.110542 49.8244C-0.065532 48.0241 0.0162049 45.6482 0.0377382 43.8054C1.13491 38.7707 1.74692 35.0881 4.77724 30.5736C6.64287 27.9294 9.39326 24.8651 12.0915 23.0805C14.8674 21.2444 19.8985 21.4936 22.4714 23.3756C24.6524 24.9414 26.0771 27.3499 26.3989 30.0153C26.7681 32.925 25.8355 35.7531 23.7221 37.7658C22.8631 38.7077 21.7536 39.5324 21.0055 40.5666C15.3153 48.4328 21.6903 59.0456 31.3053 57.594C32.5007 57.4138 33.6165 56.9875 34.5963 56.3107C42.8964 50.57 40.0974 44.5861 37.5682 36.7419C35.7413 31.0232 33.9465 25.2943 32.1839 19.5553C31.3706 16.9548 30.0339 13.774 29.5869 11.1363C28.5749 5.16514 31.9715 1.07516 37.6384 0.04596Z" fill="#00C3FF"/>
</svg>
