<svg width="246" height="78" viewBox="0 0 246 78" fill="none" xmlns="http://www.w3.org/2000/svg">
<path d="M227.05 23.0251C228.91 22.8783 230.864 23.0805 232.688 23.4593C241.431 25.2761 246.636 35.0267 244.836 43.4715C239.287 43.5712 233.641 43.2899 228.072 43.432C225.844 43.4877 222.998 43.5155 220.818 43.2796C222.825 47.0926 224.286 48.9237 228.999 49.0584C232.197 49.1493 233.901 48.222 236.155 46.0863C237.11 46.577 238.005 47.1542 238.995 47.5453C240.223 48.2235 241.579 49.057 242.811 49.7689C240.057 53.5204 237.645 55.618 232.815 56.4559C216.359 59.3138 207.173 42.4886 215.748 29.1648C218.331 25.1531 222.465 23.6992 227.05 23.0251ZM220.405 36.9383C223.133 36.7245 227.319 36.8446 230.162 36.846C231.998 36.8446 234.85 36.7626 236.602 36.9178C235.125 32.1177 232.402 29.989 227.258 30.4772C223.118 31.144 221.704 33.2633 220.405 36.9383Z" fill="#00C3FF"/>
<path d="M108.59 23.8866C111.303 23.7431 114.139 24.004 117.032 23.7803C116.987 26.4741 116.961 29.1683 116.952 31.8624C116.926 36.0215 117.208 40.6592 116.858 44.7579C116.222 52.1949 109.033 57.5533 101.81 56.5806C98.1504 56.1207 94.832 54.2002 92.6099 51.2559C88.285 45.4507 90.2842 36.7584 89.7895 29.953C89.6836 28.4952 89.7255 25.3154 89.9368 23.8938C92.4162 23.7177 95.7247 23.9503 98.4633 23.8116C97.9889 29.9076 98.6675 36.7188 98.4186 42.877C98.1469 49.6036 105.592 51.4991 108.147 45.3423C108.54 44.3931 108.346 40.5245 108.37 39.3365C108.475 34.2173 108.132 28.9916 108.59 23.8866Z" fill="#00C3FF"/>
<path d="M131.704 23.0256C134.8 22.8176 138.075 23.5985 140.678 25.2825C142.53 26.4801 143.706 28.0985 145.023 29.8135C143.098 31.0223 139.853 32.7012 137.847 33.7538C136.615 32.1485 135.575 30.8024 133.376 30.5063C131.741 30.2493 129.241 30.9984 129.038 32.9234C128.867 34.6109 132.185 35.623 133.442 35.9438C139.669 37.5302 145.676 39.1151 145.452 46.9491C145.31 51.9735 141.747 55.0746 137.017 56.1938C134.929 56.6874 133.511 56.7123 131.359 56.6186C130.363 56.6596 128.181 56.2685 127.229 55.977C123.157 54.7304 121.114 52.725 119.142 49.0878C120.677 47.6464 124.404 45.789 126.349 45.0243C126.516 45.3158 126.687 45.6073 126.859 45.8974C128.798 49.2343 133.059 50.015 136.251 48.0873C136.494 47.5907 136.757 46.9213 136.978 46.3983C136.615 45.6674 136.347 45.1459 135.614 44.724C131.943 42.6103 127.333 42.6864 123.846 40.06C122.035 38.724 120.844 36.7084 120.547 34.4773C120.227 32.0609 120.809 29.0184 122.375 27.1302C124.912 24.0734 128.048 23.4246 131.704 23.0256Z" fill="#00C3FF"/>
<path d="M167.409 14.956C170.171 15.0282 172.738 15.0603 175.5 14.8862C175.209 25.1546 175.559 35.7326 175.553 46.0202C175.552 48.3024 179.203 50.3532 181.467 48.0783C182.014 47.5304 182.407 46.8449 182.6 46.0949C182.904 44.9289 182.696 38.5319 182.731 36.8019C185.596 36.8517 188.463 36.8532 191.329 36.8034L191.315 44.8805C191.524 61.319 167.179 60.112 166.953 45.279C166.811 35.9377 166.943 26.4134 166.919 17.0539C166.918 16.3458 167.023 15.5571 167.409 14.956Z" fill="#00C3FF"/>
<path d="M148.478 14.9503C151.26 15.0395 154.045 15.0325 156.827 14.9292L156.838 23.38C156.838 25.073 156.897 27.3369 156.759 28.973C158.691 28.9831 161.662 29.0586 163.511 28.8046C163.43 31.5341 163.48 34.4241 163.497 37.1657C161.929 36.9372 158.488 37.0353 156.756 37.0456C156.986 39.6955 156.408 44.8737 157.234 47.0592C157.889 48.7863 162.488 47.9967 163.323 48.1857L163.468 48.4552C163.481 50.9352 163.525 53.4928 163.437 55.964C160.521 56.0446 157.158 56.2277 154.336 55.3605C152.344 54.7482 150.684 53.5617 149.704 51.6852C149.079 50.487 148.645 49.0441 148.493 47.7008C148.13 44.4855 147.941 16.6563 148.478 14.9503Z" fill="#00C3FF"/>
<path d="M207.607 14.9768C208.41 14.9684 209.193 14.9224 209.993 14.8804C209.852 17.357 210.096 19.8894 209.989 22.2973C209.914 23.9568 206.782 22.5129 205.099 24.0822C204.056 25.055 203.515 25.8269 203.313 27.4578L203.113 28.9862C205.349 28.9584 207.824 29.0278 210.024 28.8257C209.863 30.8267 209.902 35.1414 209.97 37.1658C207.947 36.9534 205.335 37.0325 203.252 37.0339C203.492 42.5476 203.255 49.1028 203.325 54.7585C203.306 55.2624 203.322 55.2434 203.139 55.7063C202.65 56.1399 196.027 55.9158 194.816 55.9084L194.792 55.699C194.646 54.3455 194.702 52.4338 194.703 51.0276L194.716 43.2844L194.699 33.5415C194.682 27.049 194.234 19.6928 201.141 16.353C203.192 15.3608 205.373 15.1952 207.607 14.9768Z" fill="#00C3FF"/>
<path d="M78.0612 23.884C80.511 23.7128 83.7676 23.9538 86.4934 23.8042C86.3244 25.9183 86.4168 29.1547 86.418 31.3629L86.4247 44.8689C86.4272 53.1233 87.7976 61.4231 78.6106 65.0823C75.7142 65.8221 74.3062 65.9349 71.2989 65.9261C71.1197 63.906 71.1149 59.7972 71.2442 57.761C73.662 57.6834 76.7195 57.5765 77.5981 54.4915C78.0361 52.9534 77.8242 50.0267 77.8223 48.3113L77.8059 32.6337C77.8037 30.701 77.6806 25.4747 78.0612 23.884Z" fill="#00C3FF"/>
<path d="M80.936 10.7496C82.527 10.3028 84.2353 10.7486 85.405 11.9159C86.5746 13.0833 87.0238 14.7907 86.5801 16.3825C86.1364 17.9742 84.8687 19.2031 83.2638 19.597C80.8388 20.1923 78.3843 18.733 77.749 16.3181C77.1137 13.9033 78.5321 11.4249 80.936 10.7496Z" fill="#00C3FF"/>
<path d="M185.826 23.6618C187.427 23.2213 189.141 23.6844 190.303 24.8712C191.463 26.058 191.889 27.7815 191.413 29.3722C190.938 30.963 189.636 32.1703 188.015 32.5254C185.598 33.0547 183.198 31.5617 182.605 29.1591C182.012 26.7563 183.44 24.3185 185.826 23.6618Z" fill="#00C3FF"/>
<path d="M37.6384 0.515198C40.5139 0.247425 43.6006 1.14859 45.6203 3.24859C47.8177 5.53316 48.6496 9.51505 49.5626 12.4787L52.6958 22.4905L55.7129 32.049C56.6545 34.9544 57.6763 37.8439 58.3539 40.8234C62.6213 59.5896 48.4214 77.1941 29.2012 76.9729C21.344 76.8601 13.8502 73.6447 8.35527 68.0271C3.69033 63.2121 0.785689 56.9646 0.110542 50.2937C-0.065532 48.4934 0.0162049 46.1174 0.0377382 44.2746C1.13491 39.24 1.74692 35.5573 4.77724 31.0428C6.64287 28.3986 9.39326 25.3343 12.0915 23.5497C14.8674 21.7137 19.8985 21.9628 22.4714 23.8449C24.6524 25.4107 26.0771 27.8192 26.3989 30.4846C26.7681 33.3942 25.8355 36.2224 23.7221 38.2351C22.8631 39.177 21.7536 40.0017 21.0055 41.0359C15.3153 48.9021 21.6903 59.5149 31.3053 58.0632C32.5007 57.883 33.6165 57.4567 34.5963 56.78C42.8964 51.0393 40.0974 45.0554 37.5682 37.2111C35.7413 31.4924 33.9465 25.7635 32.1839 20.0246C31.3706 17.424 30.0339 14.2433 29.5869 11.6055C28.5749 5.63438 31.9715 1.5444 37.6384 0.515198Z" fill="#00C3FF"/>
</svg>
