<svg width="16" height="16" viewBox="0 0 16 16" fill="none" xmlns="http://www.w3.org/2000/svg">
<path fill-rule="evenodd" clip-rule="evenodd" d="M0 16H16V0H0V16Z" fill="#016FD0"/>
<path fill-rule="evenodd" clip-rule="evenodd" d="M5.7961 13.4681V7.73511L16 7.74426V9.3279L14.8206 10.5882L16 11.8602V13.4774H14.1169L13.1162 12.3731L12.1226 13.4816L5.7961 13.4681Z" fill="#FFFFFE"/>
<path fill-rule="evenodd" clip-rule="evenodd" d="M6.4776 12.8397V8.36609H10.2708V9.39666H7.70577V10.0962H10.2097V11.1096H7.70577V11.7967H10.2708V12.8397H6.4776Z" fill="#016FD0"/>
<path fill-rule="evenodd" clip-rule="evenodd" d="M10.2519 12.8396L12.3508 10.6002L10.2518 8.36609H11.8764L13.159 9.78395L14.4452 8.36609H16V8.40129L13.9458 10.6002L16 12.7761V12.8396H14.4296L13.1243 11.4075L11.8324 12.8396H10.2519Z" fill="#016FD0"/>
<path fill-rule="evenodd" clip-rule="evenodd" d="M6.27204 2.64661H8.73167L9.59558 4.60828V2.64661H12.6322L13.1558 4.11629L13.6812 2.64661H16V8.37964H3.74583L6.27204 2.64661Z" fill="#FFFFFE"/>
<path fill-rule="evenodd" clip-rule="evenodd" d="M6.73758 3.26941L4.75261 7.73925H6.11402L6.48851 6.84415H8.51765L8.89187 7.73925H10.2872L8.31046 3.26941H6.73758ZM6.908 5.84102L7.50328 4.4181L8.09812 5.84102H6.908Z" fill="#016FD0"/>
<path fill-rule="evenodd" clip-rule="evenodd" d="M10.2685 7.73855V3.2688L12.1822 3.27538L13.1669 6.02327L14.158 3.2688H15.9998V7.73855L14.8146 7.74904V4.67875L13.6959 7.73855H12.6141L11.4721 4.66826V7.73855H10.2685Z" fill="#016FD0"/>
</svg>
