<svg width="25" height="16" viewBox="0 0 25 16" fill="none" xmlns="http://www.w3.org/2000/svg">
<rect x="0.227715" y="0.187675" width="23.6246" height="15.6246" rx="2.81232" stroke="#212121" stroke-width="0.375351"/>
<path d="M6.17139 5.40136C6.15432 5.40155 6.13738 5.39837 6.12154 5.39201C6.1057 5.38564 6.09127 5.37622 6.07907 5.36429C6.06687 5.35235 6.05714 5.33812 6.05044 5.32242C6.04374 5.30672 6.0402 5.28986 6.04001 5.27279C6.04001 4.77533 6.452 4.37245 6.95927 4.37245C6.97635 4.37222 6.99331 4.37536 7.00917 4.38171C7.02503 4.38805 7.03948 4.39747 7.05169 4.40942C7.0639 4.42137 7.07363 4.43561 7.08031 4.45133C7.087 4.46705 7.09051 4.48394 7.09065 4.50102C7.09065 4.99848 6.67901 5.40136 6.17139 5.40136ZM8.08943 8.10974C8.14023 8.14688 8.15669 8.21484 8.12797 8.27019C7.66553 9.17614 7.29664 9.62736 6.95962 9.62736C6.80268 9.62736 6.64853 9.57761 6.49824 9.48092C6.39037 9.41167 6.26546 9.37358 6.1373 9.37086C6.00914 9.36814 5.88273 9.40089 5.77201 9.46551C5.58984 9.57236 5.41643 9.62736 5.25178 9.62736C4.75606 9.62736 3.93805 8.13251 3.93805 7.3124C3.93805 6.43658 4.40714 5.76885 5.1204 5.76885C5.45602 5.76885 5.74574 5.8172 5.98922 5.91564C6.09221 5.95698 6.20887 5.95418 6.30942 5.90688C6.507 5.8137 6.76764 5.76885 7.09065 5.76885C7.48547 5.76885 7.82984 5.96153 8.11571 6.33463C8.12605 6.34809 8.13358 6.36348 8.13786 6.3799C8.14215 6.39632 8.14309 6.41343 8.14064 6.43022C8.13819 6.44701 8.1324 6.46314 8.1236 6.47765C8.1148 6.49216 8.10318 6.50476 8.08943 6.5147C7.77028 6.74942 7.61649 7.01252 7.61649 7.3124C7.61649 7.61193 7.77028 7.87537 8.08943 8.10974Z" fill="black"/>
<path d="M9.49359 5.27246H11.2133C12.0805 5.27246 12.6782 5.84961 12.6782 6.71973C12.6782 7.58691 12.06 8.16699 11.1694 8.16699H10.3784V9.5H9.49359V5.27246ZM10.3784 5.97266V7.47559H10.976C11.4828 7.47559 11.7787 7.20605 11.7787 6.72266C11.7787 6.24219 11.4858 5.97266 10.9789 5.97266H10.3784ZM14.1371 8.93164C14.5092 8.93164 14.8168 8.68848 14.8168 8.34863V8.12012L14.1547 8.16113C13.8354 8.18457 13.6537 8.32812 13.6537 8.55078C13.6537 8.78516 13.8471 8.93164 14.1371 8.93164ZM13.8559 9.5498C13.2582 9.5498 12.8041 9.16309 12.8041 8.59766C12.8041 8.02637 13.2436 7.69531 14.0258 7.64844L14.8168 7.60156V7.39355C14.8168 7.10059 14.6118 6.93066 14.2895 6.93066C13.9702 6.93066 13.768 7.08887 13.727 7.32031H12.9448C12.977 6.71094 13.4955 6.29199 14.3276 6.29199C15.1332 6.29199 15.6577 6.70801 15.6577 7.34082V9.5H14.8315V9.01953H14.8139C14.6381 9.35352 14.2485 9.5498 13.8559 9.5498ZM16.5952 10.6631C16.5659 10.6631 16.2993 10.6602 16.2729 10.6543V9.99512C16.2993 10.001 16.4545 10.001 16.4868 10.001C16.8002 10.001 16.9555 9.90137 17.0141 9.65234C17.0141 9.64062 17.0463 9.51465 17.0405 9.50293L15.9477 6.35938H16.8881L17.5561 8.81445H17.5707L18.2387 6.35938H19.1411L18.06 9.57031C17.7905 10.376 17.3979 10.6631 16.5952 10.6631Z" fill="black"/>
</svg>
