<svg width="24" height="16" viewBox="0 0 24 16" fill="none" xmlns="http://www.w3.org/2000/svg">
<g clip-path="url(#clip0_17848_276)">
<path d="M21.6 0H2.4C1.07452 0 0 1.14615 0 2.56V13.44C0 14.8538 1.07452 16 2.4 16H21.6C22.9255 16 24 14.8538 24 13.44V2.56C24 1.14615 22.9255 0 21.6 0Z" fill="#18AA33"/>
<path fill-rule="evenodd" clip-rule="evenodd" d="M5.90804 10.7971C4.09764 10.7971 2.625 9.2509 2.625 7.34998H3.87428C3.87428 8.52751 4.78657 9.48553 5.90804 9.48553C6.26664 9.48553 6.6186 9.38639 6.92652 9.19906C7.1313 9.07452 7.31232 8.91452 7.46514 8.72348L8.42124 9.56783C8.17524 9.87522 7.88352 10.1326 7.55352 10.3339C7.05558 10.6371 6.48654 10.7971 5.90804 10.7971Z" fill="white"/>
<path fill-rule="evenodd" clip-rule="evenodd" d="M7.46479 5.97599C7.18723 5.6295 6.80533 5.38076 6.38965 5.27485L6.68407 4C7.35613 4.17098 7.97317 4.57288 8.42089 5.13122L7.46479 5.97599Z" fill="white"/>
<path fill-rule="evenodd" clip-rule="evenodd" d="M5.20471 5.22755C5.20471 5.76948 4.78647 6.20874 4.27035 6.20874C3.75457 6.20874 3.33633 5.76948 3.33633 5.22755C3.33633 4.68609 3.75457 4.24683 4.27035 4.24683C4.78647 4.24683 5.20471 4.68609 5.20471 5.22755Z" fill="white"/>
<path fill-rule="evenodd" clip-rule="evenodd" d="M16.2934 9.33912V9.06769H15.313C14.8117 9.06769 14.5791 9.17272 14.5791 9.47697C14.5791 9.81976 14.8406 10.0411 15.2692 10.0411C15.814 10.0411 16.2427 9.73604 16.2934 9.33912ZM16.3007 10.7577V10.2626C16.0322 10.6208 15.5962 10.8036 15.0441 10.8036C14.2084 10.8036 13.6858 10.2626 13.6858 9.53784C13.6858 8.7827 14.2162 8.3171 15.1601 8.30974H16.2934V8.20292C16.2934 7.73016 15.9954 7.44779 15.4148 7.44779C15.0515 7.44779 14.6591 7.57732 14.2595 7.82916L13.9183 7.1427C14.4773 6.81496 14.9133 6.6394 15.6252 6.6394C16.6423 6.6394 17.2161 7.18091 17.2234 8.08836L17.2309 10.7577H16.3007Z" fill="white"/>
<path fill-rule="evenodd" clip-rule="evenodd" d="M11.8111 7.60646C12.406 7.60646 12.7663 7.2615 12.7663 6.71084C12.7663 6.15205 12.406 5.79879 11.8115 5.79833H10.8329V7.60646H11.8111ZM10.8325 8.47769V10.7541L9.89328 10.7536L9.89412 4.92725L11.9523 4.92771C13.017 4.92771 13.7212 5.6838 13.7212 6.70272C13.7207 7.73024 13.0166 8.47814 11.9519 8.47769H10.8325Z" fill="white"/>
<path fill-rule="evenodd" clip-rule="evenodd" d="M17.9776 12.3207L18.8934 10.2257L17.2661 6.69934L18.2915 6.69979L19.387 9.23086L20.4124 6.70024H21.3749L18.9479 12.3212L17.9776 12.3207Z" fill="white"/>
</g>
<defs>
<clipPath id="clip0_17848_276">
<rect width="24" height="16" fill="white"/>
</clipPath>
</defs>
</svg>
