<svg width="31" height="16" viewBox="0 0 31 16" fill="none" xmlns="http://www.w3.org/2000/svg">
<path d="M22.08 0H8C3.6 0 0 3.6 0 8C0 12.4 3.6 16 8 16H22.08C26.48 16 30.08 12.4 30.08 8C30.08 3.6 26.48 0 22.08 0Z" fill="white"/>
<path d="M22.08 0.648C23.068 0.648 24.028 0.844 24.932 1.228C25.808 1.6 26.592 2.132 27.272 2.808C27.948 3.484 28.48 4.272 28.852 5.148C29.236 6.052 29.432 7.012 29.432 8C29.432 8.988 29.236 9.948 28.852 10.852C28.48 11.728 27.948 12.512 27.272 13.192C26.596 13.868 25.808 14.4 24.932 14.772C24.028 15.156 23.068 15.352 22.08 15.352H8C7.012 15.352 6.052 15.156 5.148 14.772C4.272 14.4 3.488 13.868 2.808 13.192C2.132 12.516 1.6 11.728 1.228 10.852C0.844 9.948 0.648 8.988 0.648 8C0.648 7.012 0.844 6.052 1.228 5.148C1.6 4.272 2.132 3.488 2.808 2.808C3.484 2.132 4.272 1.6 5.148 1.228C6.052 0.844 7.012 0.648 8 0.648H22.08ZM22.08 0H8C3.6 0 0 3.6 0 8C0 12.4 3.6 16 8 16H22.08C26.48 16 30.08 12.4 30.08 8C30.08 3.6 26.48 0 22.08 0Z" fill="#3C4043"/>
<path d="M14.3436 8.56796V10.988H13.5756V5.01196H15.6116C16.1276 5.01196 16.5676 5.18396 16.9276 5.52796C17.2956 5.87196 17.4796 6.29196 17.4796 6.78796C17.4796 7.29596 17.2956 7.71596 16.9276 8.05596C16.5716 8.39596 16.1316 8.56396 15.6116 8.56396H14.3436V8.56796ZM14.3436 5.74796V7.83196H15.6276C15.9316 7.83196 16.1876 7.72796 16.3876 7.52396C16.5916 7.31996 16.6956 7.07196 16.6956 6.79196C16.6956 6.51596 16.5916 6.27196 16.3876 6.06796C16.1876 5.85596 15.9356 5.75196 15.6276 5.75196H14.3436V5.74796Z" fill="#3C4043"/>
<path d="M19.4877 6.76428C20.0557 6.76428 20.5037 6.91628 20.8317 7.22028C21.1597 7.52428 21.3237 7.94028 21.3237 8.46828V10.9883H20.5917V10.4203H20.5597C20.2437 10.8883 19.8197 11.1203 19.2917 11.1203C18.8397 11.1203 18.4637 10.9883 18.1597 10.7203C17.8557 10.4523 17.7037 10.1203 17.7037 9.72028C17.7037 9.29628 17.8637 8.96028 18.1837 8.71228C18.5037 8.46028 18.9317 8.33628 19.4637 8.33628C19.9197 8.33628 20.2957 8.42028 20.5877 8.58828V8.41228C20.5877 8.14428 20.4837 7.92028 20.2717 7.73228C20.0597 7.54428 19.8117 7.45228 19.5277 7.45228C19.0997 7.45228 18.7597 7.63228 18.5117 7.99628L17.8357 7.57228C18.2077 7.03228 18.7597 6.76428 19.4877 6.76428ZM18.4957 9.73228C18.4957 9.93228 18.5797 10.1003 18.7517 10.2323C18.9197 10.3643 19.1197 10.4323 19.3477 10.4323C19.6717 10.4323 19.9597 10.3123 20.2117 10.0723C20.4637 9.83228 20.5917 9.55228 20.5917 9.22828C20.3517 9.04028 20.0197 8.94428 19.5917 8.94428C19.2797 8.94428 19.0197 9.02028 18.8117 9.16828C18.5997 9.32428 18.4957 9.51228 18.4957 9.73228Z" fill="#3C4043"/>
<path d="M25.4999 6.89636L22.9399 12.7844H22.1479L23.0999 10.7244L21.4119 6.89636H22.2479L23.4639 9.83236H23.4799L24.6639 6.89636H25.4999Z" fill="#3C4043"/>
<path d="M11.289 8.07965C11.289 7.82925 11.2666 7.58965 11.225 7.35925H8.00577V8.67925L9.85977 8.67965C9.78457 9.11885 9.54257 9.49325 9.17177 9.74285V10.5993H10.2754C10.9198 10.0029 11.289 9.12125 11.289 8.07965Z" fill="#4285F4"/>
<path d="M9.17225 9.7431C8.86505 9.9503 8.46945 10.0715 8.00665 10.0715C7.11265 10.0715 6.35424 9.4691 6.08264 8.6571H4.94424V9.54031C5.50824 10.6595 6.66745 11.4275 8.00665 11.4275C8.93225 11.4275 9.70985 11.1231 10.2758 10.5991L9.17225 9.7431Z" fill="#34A853"/>
<path d="M5.97525 8.00169C5.97525 7.77369 6.01325 7.55329 6.08245 7.34609V6.46289H4.94405C4.71085 6.92569 4.57965 7.44809 4.57965 8.00169C4.57965 8.55529 4.71125 9.07769 4.94405 9.54049L6.08245 8.65729C6.01325 8.45009 5.97525 8.22969 5.97525 8.00169Z" fill="#FABB05"/>
<path d="M8.00665 5.93168C8.51185 5.93168 8.96425 6.10568 9.32145 6.44568L10.2994 5.46848C9.70545 4.91528 8.93105 4.57568 8.00665 4.57568C6.66785 4.57568 5.50824 5.34368 4.94424 6.46288L6.08264 7.34608C6.35424 6.53408 7.11265 5.93168 8.00665 5.93168Z" fill="#E94235"/>
</svg>
