<svg width="26" height="16" viewBox="0 0 26 16" fill="none" xmlns="http://www.w3.org/2000/svg">
<path d="M9.75777 1.70776H16.4502L16.5443 14.2934H9.85189L9.75777 1.70776Z" fill="#FF5F00"/>
<path d="M9.93135 8C9.9291 5.54533 11.0608 3.226 13.0002 1.7105C9.70593 -0.867595 4.97488 -0.492363 2.13209 2.57248C-0.710696 5.63731 -0.710696 10.3627 2.13209 13.4275C4.97488 16.4924 9.70593 16.8676 13.0002 14.2895C11.0608 12.774 9.92911 10.4547 9.93135 8Z" fill="#EB001B"/>
<path d="M26 7.99994C26.0001 11.0627 24.2438 13.8567 21.477 15.1953C18.7102 16.5339 15.4187 16.1822 13.0002 14.2894C14.9378 12.7725 16.069 10.4541 16.069 7.99994C16.069 5.54579 14.9378 3.22739 13.0002 1.71044C15.4187 -0.182295 18.7102 -0.534044 21.477 0.804574C24.2438 2.14319 26.0001 4.93718 26 7.99994Z" fill="#F79E1B"/>
</svg>
