<svg width="40" height="16" viewBox="0 0 40 16" fill="none" xmlns="http://www.w3.org/2000/svg">
<g clip-path="url(#clip0_17848_302)">
<path d="M36.859 0H3.14093C1.40515 0 0 1.4069 0 3.14482V12.8552C0 14.5931 1.40515 16 3.14093 16H36.859C38.5949 16 40 14.5931 40 12.8552V3.14482C40 1.41242 38.5894 0 36.859 0Z" fill="url(#paint0_linear_17848_302)"/>
<path fill-rule="evenodd" clip-rule="evenodd" d="M23.5394 3.71695L25.277 3.44324V7.35498C25.3434 5.98676 26.201 5.17575 27.6011 5.17575C29.2335 5.17575 30.213 6.43916 30.2074 8.55221C30.2074 10.6653 29.2335 11.9286 27.5955 11.9286C26.1955 11.9286 25.3378 11.1177 25.2714 9.73837V11.8017H23.5394V3.71695ZM28.4366 8.55221C28.4366 7.2943 27.828 6.54398 26.8098 6.54398C26.3173 6.54398 25.9022 6.73708 25.6145 7.1012C25.3322 7.45429 25.1829 7.95634 25.1829 8.55221C25.1829 9.76597 25.8192 10.5493 26.8098 10.5493C27.828 10.5493 28.4366 9.80453 28.4366 8.55221Z" fill="#131C26"/>
<path fill-rule="evenodd" clip-rule="evenodd" d="M17.9337 3.40051L16.1962 3.67433V11.8018H17.9337V9.73842C18.0001 11.1177 18.8578 11.9287 20.2578 11.9287C21.8958 11.9287 22.8698 10.6653 22.8698 8.55226C22.8698 6.4392 21.8958 5.17579 20.2578 5.17579C18.8578 5.17579 18.0001 5.9868 17.9337 7.35503V3.40051ZM21.099 8.55226C21.099 7.29435 20.4903 6.54403 19.4721 6.54403C18.9796 6.54403 18.5646 6.73712 18.2768 7.10124C17.9946 7.45434 17.8452 7.95639 17.8452 8.55226C17.8452 9.76602 18.4815 10.5494 19.4721 10.5494C20.4903 10.5494 21.099 9.80458 21.099 8.55226Z" fill="#131C26"/>
<path d="M36.9364 5.29712L34.6598 13.9098H32.9278L33.4945 11.7907H31.9118L30.213 5.30263H32.0668L33.5387 11.6362L35.1989 5.30263V5.29712H36.9364Z" fill="#131C26"/>
<path d="M4.4136 5.52785L7.99923 4.96265V6.16439L5.87024 6.49998V7.09283L7.99923 6.75724V7.95898L5.87024 8.2946V9.545C5.87024 10.6428 7.21823 10.4426 7.74064 10.1024V11.6417C7.32098 11.8509 6.80579 11.9341 6.34061 11.9341C5.00699 11.9341 4.13266 11.2197 4.13266 9.97004V8.56844L3.12 8.72812V7.52635L4.13266 7.36673V6.77387L3.12 6.9335V5.73176L4.13266 5.57214V3.18408H5.96985V3.69165C5.96985 4.49369 5.4039 5.29574 4.4136 5.52785Z" fill="#131C26"/>
<path fill-rule="evenodd" clip-rule="evenodd" d="M13.457 5.58405L15.1946 5.31922V11.8018H13.457V9.73841C13.3906 11.1122 12.5328 11.9286 11.1328 11.9286C10.3304 11.9286 9.6664 11.6197 9.21816 11.0349C8.76992 10.4501 8.53192 9.59497 8.53192 8.55225C8.53192 7.50949 8.76992 6.65435 9.21816 6.06954C9.6664 5.48473 10.3304 5.17578 11.1328 5.17578C12.5328 5.17578 13.3906 5.98679 13.457 7.35501V5.58405ZM13.551 8.55225C13.551 7.96189 13.4016 7.45985 13.1194 7.10123C12.8317 6.73711 12.4166 6.54401 11.9241 6.54401C10.9059 6.54401 10.2972 7.29433 10.2972 8.55225C10.2972 9.81009 10.9059 10.5494 11.9241 10.5494C12.9146 10.5494 13.551 9.76601 13.551 8.55225Z" fill="#131C26"/>
</g>
<defs>
<linearGradient id="paint0_linear_17848_302" x1="0" y1="7.9998" x2="40" y2="7.9998" gradientUnits="userSpaceOnUse">
<stop stop-color="#3BFF9D"/>
<stop offset="1" stop-color="#3BFFC8"/>
</linearGradient>
<clipPath id="clip0_17848_302">
<rect width="40" height="16" fill="white"/>
</clipPath>
</defs>
</svg>
