<svg width="30" height="16" viewBox="0 0 30 16" fill="none" xmlns="http://www.w3.org/2000/svg">
<path fill-rule="evenodd" clip-rule="evenodd" d="M21.4302 9.69086C21.4364 8.16354 20.211 7.49973 19.2306 6.96862C18.5723 6.61202 18.0244 6.31525 18.0339 5.8571C18.0412 5.51004 18.362 5.14121 19.0622 5.04687C19.4095 4.99994 20.3665 4.96397 21.4527 5.47972L21.8785 3.42866C21.2952 3.2103 20.5448 3 19.6111 3C17.215 3 15.5288 4.31469 15.5146 6.19722C15.499 7.58964 16.7177 8.36665 17.6366 8.82918C18.5814 9.30316 18.8983 9.60748 18.8948 10.0315C18.8879 10.6803 18.1412 10.9668 17.4433 10.978C16.2628 10.9967 15.5627 10.6599 15.0076 10.3928L14.9541 10.3671L14.5148 12.486C15.0812 12.7544 16.1266 12.9884 17.2106 13C19.7575 13 21.4232 11.7016 21.431 9.69086H21.4302ZM11.3902 3.17659L7.46262 12.8487H4.90019L2.96742 5.13057C2.85008 4.65514 2.74868 4.48096 2.39134 4.28082C1.8087 3.95441 0.84654 3.64848 0 3.45834L0.0582797 3.17659H4.18317C4.70878 3.17659 5.18143 3.53784 5.3008 4.16293L6.32155 9.75908L8.8443 3.17595L11.3902 3.17659ZM30 12.8487H27.758L27.4646 11.4041H24.3545L23.8494 12.8487H21.304L24.9417 3.88619C25.112 3.45383 25.5207 3.17257 25.9729 3.17659H28.0419L30 12.8487ZM25.0533 9.42169L26.3292 5.79001L27.0635 9.42169H25.0533ZM12.8492 12.8487L14.8537 3.17659H12.4305L10.4252 12.8487H12.8492Z" fill="#1434CB"/>
</svg>
