<svg width="40" height="40" viewBox="0 0 40 40" fill="none" xmlns="http://www.w3.org/2000/svg">
<path d="M36.3701 16.9496C38.5925 14.9883 40 12.0928 40 8.86299C40 3.96717 36.1039 6.51567e-07 31.2999 6.51567e-07H8.70009C3.89608 -0.00185664 0 3.96717 0 8.86113C0 12.0185 1.34366 14.8546 3.47675 16.8141C3.59708 16.9515 3.72106 17.0871 3.8505 17.2189L6.41933 19.8359L3.01732 23.3016C-0.732908 27.122 -0.732908 33.3161 3.01732 37.1347C6.76755 40.9551 12.8478 40.9551 16.5962 37.1347L19.9982 33.669L23.4002 37.1347C27.1504 40.9551 33.2306 40.9551 36.979 37.1347C40.7293 33.3142 40.7293 27.1202 36.979 23.2997L33.577 19.834L35.8706 17.4975C36.0456 17.3192 36.2097 17.1335 36.3683 16.9459L36.3701 16.9496Z" fill="#AAED1D"/>
</svg>
