<svg width="40" height="40" viewBox="0 0 40 40" fill="none" xmlns="http://www.w3.org/2000/svg">
<path d="M2.7867 15.3441C2.85852 15.2991 2.93033 15.2556 3.00389 15.2135C3.03017 15.1985 3.05644 15.185 3.08271 15.17C3.14927 15.134 3.21408 15.098 3.28239 15.0635C3.31567 15.047 3.34895 15.0305 3.38047 15.0155C3.44178 14.9855 3.50484 14.9555 3.56614 14.927C3.60468 14.9104 3.64146 14.8939 3.67999 14.8774C3.73954 14.8519 3.7991 14.8264 3.85865 14.8024C3.89894 14.7859 3.94097 14.7709 3.98126 14.7544C4.03906 14.7319 4.09861 14.7094 4.15816 14.6884C4.2002 14.6734 4.24399 14.6584 4.28778 14.6449C4.34733 14.6254 4.40513 14.6059 4.46468 14.5879C4.50847 14.5743 4.55401 14.5623 4.5978 14.5488C4.65735 14.5323 4.71515 14.5158 4.77645 14.5008C4.82199 14.4888 4.86929 14.4783 4.91483 14.4678C4.97438 14.4543 5.03218 14.4393 5.09174 14.4273C5.14078 14.4168 5.18807 14.4078 5.23711 14.3988C5.29491 14.3883 5.35272 14.3763 5.41052 14.3673C5.41402 14.3673 5.41752 14.3673 5.42102 14.3658L1.53785 10.2905C1.53785 10.2905 1.5326 10.2845 1.53085 10.283L1.51508 10.2665C1.50107 10.2515 1.48706 10.2365 1.47305 10.2215C1.41875 10.1645 1.3662 10.106 1.31366 10.046C1.29439 10.0235 1.27512 9.99945 1.25586 9.97695C1.21032 9.92293 1.16653 9.86891 1.12274 9.8134C1.09997 9.78489 1.0807 9.75638 1.05793 9.72787C1.0194 9.67686 0.982613 9.62734 0.947582 9.57483C0.924812 9.54181 0.902046 9.5073 0.881027 9.47429C0.849499 9.42628 0.81797 9.37827 0.788193 9.33025C0.765423 9.29274 0.744404 9.25673 0.721634 9.21922C0.693607 9.1727 0.667336 9.12619 0.641064 9.07967C0.620045 9.04066 0.599026 9.00165 0.578007 8.96114C0.553486 8.91462 0.530716 8.86811 0.507946 8.8216C0.488682 8.78108 0.469414 8.74057 0.451897 8.70006C0.430878 8.65354 0.409859 8.60703 0.390594 8.55902C0.373077 8.517 0.357315 8.47649 0.341549 8.43448C0.324036 8.38646 0.304768 8.33995 0.289001 8.29193C0.273239 8.24992 0.260979 8.20641 0.246967 8.16439C0.231201 8.11638 0.21719 8.06987 0.203178 8.02185C0.190914 7.97834 0.178654 7.93333 0.168144 7.88831C0.155884 7.8418 0.143623 7.79528 0.133114 7.74727C0.122604 7.70075 0.112099 7.65274 0.10334 7.60472C0.0945816 7.55971 0.0858231 7.5147 0.0770683 7.46968C0.0683098 7.41867 0.0613022 7.36615 0.0542946 7.31514C0.0490417 7.27312 0.0420341 7.23261 0.0367813 7.1906C0.0297737 7.13358 0.0262718 7.07656 0.0210152 7.01805C0.0175133 6.98054 0.0140114 6.94452 0.0122566 6.90701C0.00875473 6.84399 0.00700378 6.78247 0.00700378 6.71946C0.00700378 6.68945 0.00525284 6.66094 0.00525284 6.63243C0.00525284 6.63243 0.00525284 6.62343 0.00525284 6.61892C0.00525284 6.56191 0.00875854 6.50639 0.0105095 6.45087C0.0332794 5.84769 0.162895 5.26851 0.385338 4.72685C0.388844 4.72085 0.390594 4.71334 0.392345 4.70734C0.422119 4.63532 0.453648 4.5648 0.486927 4.49428C0.495686 4.47627 0.502693 4.45827 0.511448 4.44026C0.539474 4.38174 0.569248 4.32323 0.600777 4.26621C0.616543 4.2362 0.632305 4.20619 0.648067 4.17618C0.672592 4.13117 0.700615 4.08615 0.726891 4.04114C0.751411 4.00063 0.774181 3.95861 0.800453 3.9181C0.821472 3.88509 0.842491 3.85208 0.865261 3.82057C0.89854 3.76956 0.93182 3.72004 0.96685 3.66903C0.982613 3.64652 1.00013 3.62401 1.01589 3.60151C1.05793 3.54299 1.09997 3.48597 1.14551 3.42895C1.15602 3.41545 1.16828 3.40044 1.18054 3.38694C1.23133 3.32392 1.28213 3.2609 1.33643 3.19938C1.34343 3.19188 1.35044 3.18288 1.35744 3.17538C1.41525 3.10936 1.4748 3.04484 1.5361 2.98032C1.54136 2.97432 1.54661 2.96981 1.55187 2.96381C1.61493 2.89929 1.67973 2.83477 1.74629 2.77025C1.75505 2.76125 1.7638 2.75375 1.77431 2.74625C1.83737 2.68773 1.90217 2.62771 1.96873 2.57069C2.04755 2.50317 2.12637 2.43865 2.20869 2.37563C2.20869 2.37563 2.21045 2.37413 2.2122 2.37263C2.29452 2.30811 2.38034 2.24509 2.46792 2.18507C2.46792 2.18507 2.46968 2.18357 2.47143 2.18207C2.47143 2.18207 2.48719 2.17157 2.49419 2.16707C2.57301 2.11305 2.65184 2.05904 2.73416 2.00802C2.75167 1.99602 2.77094 1.98551 2.78846 1.97501C2.86027 1.9315 2.93208 1.88798 3.00565 1.84597C3.03192 1.83097 3.0582 1.81746 3.08447 1.80246C3.14928 1.76645 3.21583 1.73044 3.28414 1.69593C3.31742 1.67942 3.3507 1.66292 3.38398 1.64641C3.44529 1.6164 3.50659 1.58639 3.56964 1.55788C3.60818 1.54138 3.64496 1.52487 3.68349 1.50837C3.74305 1.48286 3.8026 1.45735 3.86215 1.43335C3.90244 1.41684 3.94447 1.40184 3.98476 1.38533C4.04256 1.36282 4.10212 1.34032 4.16167 1.31931C4.20546 1.30431 4.24749 1.2893 4.29128 1.2758C4.34908 1.25629 4.40863 1.23679 4.46819 1.21878C4.51197 1.20528 4.55752 1.19327 4.60306 1.17977C4.66261 1.16326 4.72041 1.14676 4.77996 1.13175C4.8255 1.11975 4.8728 1.10925 4.91833 1.09724C4.97614 1.08374 5.03569 1.07024 5.09524 1.05673C5.14428 1.04623 5.19333 1.03723 5.24237 1.02822C5.30017 1.01772 5.35622 1.00572 5.41402 0.996713C5.46656 0.98771 5.51911 0.980208 5.57166 0.972706C5.62596 0.965203 5.68025 0.956201 5.73455 0.950199C5.79235 0.942697 5.8519 0.936695 5.90971 0.930693C5.9605 0.926192 6.00954 0.92019 6.06034 0.915688C6.12514 0.909687 6.19171 0.906686 6.25651 0.902184C6.3003 0.899183 6.34584 0.896182 6.38963 0.894682C6.46144 0.891681 6.53501 0.890181 6.60682 0.890181C6.64185 0.890181 6.67513 0.88868 6.71016 0.88868H33.2951C36.9979 0.88718 40 3.45896 40 6.63093C40 9.42628 37.6687 11.7535 34.5825 12.2681L38.4656 16.3434C38.4656 16.3434 38.4709 16.3494 38.4744 16.3524L38.4902 16.3689C38.5042 16.3839 38.5164 16.3989 38.5305 16.4139C38.5848 16.4724 38.6391 16.5309 38.6898 16.5895C38.7091 16.612 38.7284 16.6345 38.7459 16.6585C38.7914 16.7125 38.837 16.7665 38.879 16.8235C38.9018 16.852 38.921 16.8805 38.9438 16.9091C38.9824 16.9601 39.0191 17.0096 39.0559 17.0621C39.0787 17.0951 39.1015 17.1281 39.1225 17.1626C39.154 17.2106 39.1855 17.2587 39.2171 17.3067C39.2398 17.3427 39.2608 17.3802 39.2836 17.4177C39.3116 17.4642 39.3379 17.5107 39.3642 17.5573C39.3852 17.5963 39.4062 17.6353 39.4255 17.6743C39.45 17.7208 39.4728 17.7673 39.4956 17.8138C39.5148 17.8543 39.5323 17.8949 39.5516 17.9354C39.5726 17.9819 39.5936 18.0284 39.6129 18.0764C39.6304 18.1184 39.6462 18.1589 39.662 18.201C39.6795 18.249 39.6987 18.2955 39.7145 18.3435C39.7303 18.3855 39.7425 18.429 39.7565 18.471C39.7723 18.519 39.7863 18.5656 39.8003 18.6136C39.8126 18.6571 39.8248 18.7021 39.8354 18.7471C39.8476 18.7936 39.8599 18.8401 39.8704 18.8882C39.8809 18.9347 39.8897 18.9827 39.9002 19.0292C39.9089 19.0742 39.9177 19.1192 39.9264 19.1642C39.9352 19.2153 39.9422 19.2678 39.9492 19.3188C39.9545 19.3608 39.9615 19.4013 39.9667 19.4433C39.9737 19.5003 39.9772 19.5574 39.9825 19.6159C39.986 19.6534 39.9895 19.6894 39.9912 19.7269C39.9947 19.7899 39.9965 19.8515 39.9965 19.9145C39.9965 19.9445 39.9982 19.973 39.9982 20.0015C39.9982 20.0015 39.9982 20.0105 39.9982 20.015C39.9982 20.072 39.9947 20.1275 39.993 20.1831C39.9702 20.7862 39.8406 21.3654 39.6182 21.9071C39.6147 21.9131 39.6129 21.9206 39.6112 21.9266C39.5814 21.9986 39.5499 22.0691 39.5166 22.1397C39.5078 22.1577 39.5008 22.1757 39.4921 22.1937C39.464 22.2522 39.4343 22.3107 39.4027 22.3677C39.387 22.3977 39.3712 22.4277 39.3554 22.4577C39.3309 22.5028 39.3029 22.5478 39.2766 22.5928C39.2521 22.6333 39.2293 22.6753 39.203 22.7158C39.182 22.7488 39.161 22.7818 39.1382 22.8149C39.105 22.8659 39.0717 22.9154 39.0367 22.9664C39.0209 22.9889 39.0034 23.0114 38.9876 23.0324C38.9456 23.0909 38.9035 23.148 38.858 23.205C38.8475 23.2185 38.8352 23.232 38.8247 23.247C38.7739 23.31 38.7231 23.373 38.6688 23.4345C38.6618 23.442 38.6548 23.451 38.6478 23.4585C38.59 23.5246 38.5305 23.5891 38.4692 23.6536C38.4639 23.6596 38.4586 23.6641 38.4534 23.6701C38.3903 23.7346 38.3255 23.7992 38.259 23.8622C38.2485 23.8712 38.2397 23.8802 38.2292 23.8892C38.1661 23.9477 38.1031 24.0062 38.0365 24.0617C37.9577 24.1293 37.8789 24.1938 37.7966 24.2568C37.7966 24.2568 37.7966 24.2568 37.7948 24.2568C37.7107 24.3213 37.6249 24.3843 37.5373 24.4459C37.5373 24.4459 37.5356 24.4474 37.5338 24.4489C37.5338 24.4489 37.5198 24.4579 37.5111 24.4639C37.4322 24.5194 37.3517 24.5719 37.2693 24.6244C37.2518 24.6364 37.2326 24.6469 37.215 24.6574C37.1432 24.7024 37.0714 24.7459 36.9979 24.7865C36.9716 24.8015 36.9453 24.815 36.9173 24.83C36.8525 24.866 36.7859 24.902 36.7176 24.9365C36.6843 24.953 36.651 24.9695 36.6195 24.9845C36.5582 25.0145 36.4952 25.0445 36.4339 25.073C36.3953 25.0895 36.3585 25.1061 36.32 25.1226C36.2605 25.1481 36.2009 25.1736 36.1413 25.1976C36.1011 25.2141 36.059 25.2291 36.0187 25.2456C35.9609 25.2681 35.9014 25.2906 35.8418 25.3116C35.7998 25.3266 35.756 25.3416 35.7122 25.3551C35.6527 25.3746 35.5949 25.3941 35.5353 25.4121C35.4915 25.4256 35.446 25.4377 35.4022 25.4512C35.3426 25.4677 35.2848 25.4842 35.2235 25.4992C35.178 25.5112 35.1307 25.5217 35.0852 25.5322C35.0256 25.5457 34.9678 25.5607 34.9083 25.5727C34.8592 25.5832 34.8119 25.5922 34.7629 25.6012C34.7051 25.6117 34.6473 25.6237 34.5895 25.6327C34.586 25.6327 34.5825 25.6327 34.579 25.6342L38.4621 29.7095C38.4621 29.7095 38.4674 29.7155 38.4692 29.717L38.4849 29.7335C38.4989 29.7485 38.5129 29.7635 38.527 29.7785C38.5812 29.837 38.6338 29.894 38.6863 29.954C38.7056 29.9765 38.7249 30.0005 38.7441 30.023C38.7897 30.0771 38.8335 30.1311 38.8773 30.1866C38.9 30.2151 38.9193 30.2436 38.9421 30.2721C38.9806 30.3231 39.0174 30.3727 39.0524 30.4252C39.0752 30.4582 39.098 30.4927 39.119 30.5257C39.1505 30.5737 39.182 30.6217 39.2118 30.6697C39.2346 30.7073 39.2556 30.7433 39.2784 30.7808C39.3064 30.8273 39.3327 30.8738 39.3589 30.9203C39.38 30.9593 39.401 30.9983 39.422 31.0389C39.4465 31.0854 39.4693 31.1319 39.4921 31.1784C39.5113 31.2189 39.5306 31.2594 39.5481 31.2999C39.5691 31.3465 39.5901 31.393 39.6094 31.441C39.6269 31.483 39.6427 31.5235 39.6584 31.5655C39.676 31.6135 39.6952 31.66 39.711 31.7081C39.7268 31.7501 39.739 31.7936 39.753 31.8356C39.7688 31.8836 39.7828 31.9301 39.7968 31.9781C39.8091 32.0217 39.8213 32.0667 39.8319 32.1117C39.8441 32.1582 39.8564 32.2047 39.8669 32.2527C39.8774 32.2992 39.8879 32.3473 39.8967 32.3953C39.9054 32.4403 39.9142 32.4853 39.9229 32.5303C39.9317 32.5813 39.9387 32.6338 39.9457 32.6849C39.951 32.7269 39.958 32.7674 39.9632 32.8094C39.9702 32.8664 39.9737 32.9234 39.979 32.9819C39.9825 33.0195 39.986 33.0555 39.9877 33.093C39.9912 33.156 39.993 33.2175 39.993 33.2805C39.993 33.3106 39.9947 33.3391 39.9947 33.3676C39.9947 33.3676 39.9947 33.3766 39.9947 33.3811C39.9947 33.4381 39.9912 33.4936 39.9895 33.5491C39.9667 34.1523 39.8371 34.7315 39.6147 35.2731C39.6112 35.2791 39.6094 35.2867 39.6077 35.2927C39.5779 35.3647 39.5464 35.4352 39.5131 35.5057C39.5043 35.5237 39.4973 35.5417 39.4885 35.5597C39.4605 35.6183 39.4307 35.6768 39.3992 35.7338C39.3835 35.7638 39.3677 35.7938 39.3519 35.8238C39.3274 35.8688 39.2994 35.9138 39.2731 35.9589C39.2486 35.9994 39.2258 36.0414 39.1995 36.0819C39.1785 36.1149 39.1575 36.1479 39.1347 36.1794C39.1015 36.2304 39.0682 36.28 39.0331 36.331C39.0174 36.3535 38.9999 36.376 38.9841 36.3985C38.9421 36.457 38.9 36.514 38.8545 36.571C38.844 36.5845 38.8317 36.5996 38.8195 36.6131C38.7687 36.6761 38.7179 36.7391 38.6636 36.8006C38.6566 36.8081 38.6496 36.8171 38.6426 36.8246C38.5848 36.8906 38.5252 36.9552 38.4639 37.0197C38.4586 37.0257 38.4534 37.0302 38.4481 37.0362C38.3851 37.1007 38.3203 37.1652 38.2537 37.2297C38.245 37.2387 38.2362 37.2462 38.2257 37.2537C38.1626 37.3123 38.0978 37.3723 38.0313 37.4293C37.9524 37.4968 37.8736 37.5613 37.7913 37.6244C37.7913 37.6244 37.7896 37.6259 37.7878 37.6274C37.7055 37.6919 37.6197 37.7549 37.5321 37.8149C37.5321 37.8149 37.5303 37.8164 37.5286 37.8179C37.5286 37.8179 37.5128 37.8284 37.5058 37.8329C37.427 37.8869 37.3482 37.941 37.2658 37.992C37.2483 38.004 37.2291 38.0145 37.2115 38.025C37.1397 38.0685 37.0679 38.112 36.9944 38.154C36.9681 38.169 36.9418 38.1825 36.9155 38.1975C36.8507 38.2336 36.7842 38.2696 36.7159 38.3041C36.6826 38.3206 36.6493 38.3371 36.616 38.3536C36.5547 38.3836 36.4934 38.4136 36.4304 38.4421C36.3918 38.4586 36.355 38.4751 36.3165 38.4916C36.257 38.5171 36.1974 38.5426 36.1378 38.5667C36.0976 38.5832 36.0555 38.5982 36.0152 38.6147C35.9574 38.6372 35.8979 38.6597 35.8383 38.6807C35.7945 38.6957 35.7525 38.7107 35.7087 38.7242C35.6509 38.7437 35.5914 38.7632 35.5318 38.7812C35.488 38.7947 35.4425 38.8067 35.3969 38.8202C35.3374 38.8367 35.2796 38.8532 35.22 38.8682C35.1745 38.8802 35.1272 38.8908 35.0817 38.9028C35.0239 38.9163 34.9643 38.9298 34.9048 38.9433C34.8557 38.9538 34.8067 38.9628 34.7576 38.9718C34.6998 38.9823 34.6438 38.9943 34.586 39.0033C34.5334 39.0123 34.4809 39.0198 34.4283 39.0273C34.374 39.0348 34.3197 39.0438 34.2654 39.0498C34.2076 39.0573 34.1481 39.0633 34.0903 39.0693C34.0395 39.0738 33.9905 39.0798 33.9397 39.0843C33.8749 39.0903 33.8083 39.0933 33.7435 39.0978C33.6997 39.1008 33.6542 39.1038 33.6104 39.1053C33.5386 39.1083 33.465 39.1098 33.3932 39.1098C33.3581 39.1098 33.3249 39.1113 33.2898 39.1113H6.70491C3.00214 39.1113 0 36.5395 0 33.3676C0 30.5722 2.3313 28.245 5.41752 27.7304L1.53435 23.6551C1.53435 23.6551 1.52909 23.6491 1.52559 23.6461L1.50983 23.6296C1.49582 23.6146 1.48356 23.5996 1.46954 23.5846C1.41525 23.5261 1.36095 23.4676 1.31015 23.409C1.29089 23.3865 1.27162 23.3625 1.25235 23.34C1.20681 23.286 1.16127 23.232 1.11924 23.1765C1.09647 23.148 1.0772 23.1194 1.05443 23.0909C1.0159 23.0399 0.979111 22.9904 0.94408 22.9379C0.92131 22.9049 0.89854 22.8704 0.877522 22.8374C0.845993 22.7893 0.814468 22.7413 0.78294 22.6933C0.76017 22.6573 0.739151 22.6198 0.716381 22.5823C0.688354 22.5358 0.662083 22.4893 0.635807 22.4427C0.614788 22.4037 0.593773 22.3647 0.574505 22.3257C0.549984 22.2792 0.527214 22.2327 0.504444 22.1862C0.485176 22.1457 0.467663 22.1051 0.448395 22.0646C0.427376 22.0181 0.406357 21.9716 0.387089 21.9236C0.369572 21.8816 0.353809 21.8411 0.338047 21.799C0.32053 21.751 0.301262 21.7045 0.2855 21.6565C0.269737 21.6145 0.257477 21.571 0.243465 21.529C0.227699 21.481 0.213688 21.4344 0.199673 21.3864C0.187412 21.3429 0.175156 21.2979 0.164646 21.2529C0.152386 21.2064 0.140121 21.1598 0.129612 21.1118C0.119102 21.0653 0.110348 21.0173 0.0998383 20.9693C0.0910797 20.9243 0.0823212 20.8793 0.0735626 20.8343C0.0648079 20.7832 0.0578003 20.7307 0.0507927 20.6797C0.0455399 20.6377 0.0385361 20.5972 0.0332794 20.5552C0.0262718 20.4981 0.0227699 20.4411 0.0175133 20.3826C0.0140114 20.3451 0.0105057 20.3091 0.00875473 20.2716C0.00525284 20.2086 0.00349808 20.147 0.00349808 20.084C0.00349808 20.054 0.00175095 20.0255 0.00175095 19.997C0.00175095 19.997 0.00175095 19.988 0.00175095 19.9835C0.00175095 19.9265 0.00525284 19.871 0.00700378 19.8154C0.0297737 19.2123 0.159389 18.6331 0.381836 18.0914C0.385338 18.0854 0.387089 18.0779 0.388844 18.0719C0.418617 17.9999 0.450146 17.9294 0.483425 17.8588C0.492184 17.8408 0.499191 17.8228 0.507946 17.8048C0.535973 17.7463 0.565746 17.6878 0.597275 17.6308C0.613037 17.6008 0.628803 17.5708 0.644566 17.5408C0.669086 17.4957 0.697113 17.4507 0.723385 17.4057C0.747906 17.3652 0.770676 17.3232 0.796951 17.2827C0.817966 17.2497 0.838989 17.2167 0.861759 17.1836C0.895039 17.1326 0.928318 17.0831 0.963348 17.0336C0.979115 17.0111 0.996628 16.9886 1.01239 16.9661C1.05443 16.9076 1.09647 16.8505 1.14201 16.7935C1.15252 16.78 1.16478 16.765 1.17704 16.7515C1.22783 16.6885 1.27863 16.6255 1.33292 16.564C1.33993 16.5565 1.34694 16.5474 1.35394 16.5399C1.41174 16.4739 1.47129 16.4094 1.5326 16.3449C1.53785 16.3389 1.54311 16.3344 1.54836 16.3284C1.61142 16.2639 1.67622 16.1993 1.74278 16.1363C1.75329 16.1273 1.76381 16.1183 1.77256 16.1093C1.83562 16.0508 1.89867 15.9938 1.96523 15.9368C2.04405 15.8692 2.12287 15.8047 2.20519 15.7417C2.20519 15.7417 2.20519 15.7417 2.20694 15.7417C2.29102 15.6772 2.37684 15.6142 2.46442 15.5526C2.46442 15.5526 2.46617 15.5511 2.46792 15.5496C2.46792 15.5496 2.48194 15.5406 2.4907 15.5346C2.56952 15.4791 2.65009 15.4266 2.73241 15.3741C2.74992 15.3621 2.76919 15.3516 2.7867 15.3411V15.3441Z" fill="#00C3FF"/>
</svg>
