<svg width="24" height="24" viewBox="0 0 24 24" fill="none" xmlns="http://www.w3.org/2000/svg">
<g clip-path="url(#clip0_17848_225)">
<rect x="0.103882" y="0.0057373" width="23.8961" height="23.8956" fill="#D80027"/>
<path d="M9.8182 4.84927L7.46339 6.62584L9.8182 8.4017L7.46339 10.1783L9.8182 11.9541L7.46339 13.7307L9.8182 15.5065L7.46339 17.2832L9.8182 19.0591L7.46339 20.8356L9.8182 22.6122L8.10961 23.901H0V0.00488281H8.10652L9.8182 1.29605L7.46339 3.07271L9.8182 4.84927Z" fill="#F0F0F0"/>
</g>
<defs>
<clipPath id="clip0_17848_225">
<path d="M0 12C0 5.37258 5.37258 0 12 0C18.6274 0 24 5.37258 24 12C24 18.6274 18.6274 24 12 24C5.37258 24 0 18.6274 0 12Z" fill="white"/>
</clipPath>
</defs>
</svg>
