<svg width="24" height="24" viewBox="0 0 24 24" fill="none" xmlns="http://www.w3.org/2000/svg">
<g clip-path="url(#clip0_17848_181)">
<rect width="24" height="24" fill="#006C35"/>
<path d="M1.90612 7.74646C1.85968 8.38415 1.8029 9.50513 2.34159 9.62024C2.99383 9.68349 2.63365 8.51174 2.86993 8.29921C2.91429 8.19449 2.99683 8.19449 3.00308 8.32618L3.00308 9.32058C2.99791 9.64302 3.20952 9.73844 3.37252 9.80479C3.54386 9.7923 3.65841 9.7975 3.72544 9.96446C3.75229 10.5369 3.77805 11.1102 3.8049 11.6837C3.8049 11.6837 4.20218 11.7978 4.22077 10.7163C4.23937 10.0817 4.09488 9.5507 4.1795 9.4273C4.18259 9.306 4.33633 9.29871 4.44372 9.35786C4.61397 9.47816 4.69034 9.62744 4.95456 9.56838C5.3581 9.45637 5.59955 9.25934 5.60571 8.94929C5.58195 8.65373 5.54893 8.35827 5.42204 8.06271C5.43955 8.00875 5.34467 7.86986 5.36218 7.81591C5.43438 7.93001 5.54376 7.92063 5.56961 7.81591C5.5005 7.5888 5.3942 7.37107 5.22186 7.27674C5.07946 7.15125 4.87102 7.17722 4.79465 7.44061C4.75955 7.74336 4.90304 8.10317 5.12281 8.39663C5.17025 8.51174 5.23528 8.70249 5.20644 8.87465C5.0888 8.94099 4.97215 8.91402 4.8741 8.8093C4.8741 8.8093 4.5532 8.5677 4.5532 8.51374C4.63882 7.96629 4.57279 7.90404 4.52535 7.75266C4.49234 7.54323 4.39329 7.47579 4.31383 7.3327C4.23338 7.24767 4.12499 7.24767 4.07338 7.3327C3.93098 7.5795 3.99701 8.10937 4.10023 8.34678C4.17352 8.5656 4.28698 8.70249 4.23338 8.70249C4.18903 8.82589 4.09823 8.79682 4.03211 8.65482C3.93714 8.36036 3.91855 7.92072 3.91855 7.72368C3.88961 7.47788 3.85968 6.9553 3.69878 6.82261C3.60073 6.68882 3.45524 6.75316 3.40463 6.87656C3.39429 7.11917 3.3922 7.36287 3.42014 7.58688C3.53052 7.98096 3.56463 8.32618 3.61832 8.72956C3.63274 9.26872 3.30766 8.96287 3.32317 8.69638C3.39746 8.34897 3.37787 7.80151 3.31184 7.66253C3.25923 7.52464 3.19628 7.48937 3.06721 7.51215C2.96608 7.50696 2.70295 7.79422 2.62966 8.27223C2.62966 8.27223 2.56671 8.51903 2.53986 8.73676C2.50376 8.98356 2.34168 9.15772 2.22821 8.70258C2.13007 8.37175 2.0702 7.55571 1.90612 7.74646Z" fill="white"/>
<path d="M3.677 10.3616C3.10113 10.6437 2.54494 10.9071 1.97941 11.1808C2.00009 10.794 2.78639 10.0962 3.32308 10.0858C3.67183 10.0962 3.58412 10.2227 3.677 10.3616Z" fill="white"/>
<path fill-rule="evenodd" clip-rule="evenodd" d="M7.77792 9.98509C7.78939 9.90946 7.80085 9.83382 7.81324 9.75819C7.82492 9.68609 7.94495 9.64874 8.11072 9.59717C8.12137 9.59385 8.13221 9.59048 8.14322 9.58704C8.13397 9.88469 8.09578 10.173 8.04934 10.4508C7.9668 10.735 7.57361 10.8117 7.34966 10.65C7.28363 10.5804 7.18866 10.6157 7.15048 10.6697C7.06277 10.7775 6.6624 11.046 6.37651 10.735C6.32456 10.7342 6.33521 10.8243 6.35392 10.9827C6.38394 11.2368 6.43472 11.6666 6.28154 12.1794C5.81306 13.6819 2.92345 14.4638 2.80372 12.644C2.80372 12.6011 2.80343 12.5636 2.80316 12.5296C2.80193 12.3729 2.80127 12.2894 2.83265 12.084C2.86984 11.6351 3.10612 11.4608 3.1629 11.9129C3.17225 12.1411 3.20109 12.5206 3.29606 12.6917C3.67692 13.4165 5.91946 13.2579 5.98857 10.9538C5.96689 10.7828 5.841 10.8875 5.80898 10.9922C5.47465 13.5368 2.4859 13.2143 3.38068 10.8968C3.57102 10.7655 3.58917 11.0745 3.60715 11.3807C3.61773 11.5608 3.62825 11.7399 3.67374 11.8279C3.87193 12.2074 4.24027 12.1597 4.70367 11.9513C5.46948 11.5427 5.49733 11.0108 5.45914 10.9641C5.42805 10.9427 5.37295 10.9832 5.30256 11.0349C5.24666 11.0759 5.18112 11.124 5.1103 11.1539C4.9142 11.2046 4.69125 11.2264 4.50449 11.0014C4.44463 10.8085 4.46113 10.5679 4.50449 10.346C4.54268 10.0671 4.84508 9.77988 5.1103 9.77678C5.35367 9.7678 5.45875 9.89595 5.56493 10.0254C5.61814 10.0903 5.67163 10.1556 5.74295 10.204C5.86884 10.2196 5.96689 10.0651 5.94213 9.94794C5.86009 9.4476 5.79225 9.00691 5.7244 8.56621C5.65655 8.12552 5.58871 7.68483 5.50667 7.18449C5.4664 6.95017 5.59538 6.82987 5.7337 6.78531C5.75257 6.78098 5.76994 6.77511 5.78629 6.76958C5.84059 6.75122 5.8835 6.73672 5.93188 6.7957C6.06086 6.84546 6.29415 7.55158 6.40454 7.8969C6.3343 7.98563 6.26357 7.97127 6.1895 7.95624C6.15797 7.94984 6.12584 7.94332 6.09288 7.94457C6.13017 8.22861 6.16727 8.50714 6.20426 8.78487C6.25221 9.14491 6.29998 9.5036 6.34776 9.8712C6.61188 9.71673 6.74504 9.76129 6.71719 10.09C6.73887 10.2331 6.94939 10.2134 7.06603 10.118C7.23946 9.62759 7.52635 9.66906 7.59547 9.98531C7.60172 10.0869 7.75955 10.0838 7.77506 10.004L7.77792 9.98509ZM5.04967 10.6276C5.10041 10.6302 5.15282 10.6328 5.16726 10.6054C5.19918 10.5701 5.22295 10.4986 5.1961 10.4312C5.13524 10.2768 4.9629 10.3338 4.93089 10.3888C4.9251 10.399 4.91767 10.4099 4.90983 10.4214C4.88265 10.4614 4.85064 10.5084 4.86585 10.5567C4.90712 10.6117 4.93914 10.6241 5.00726 10.6262C5.02063 10.6262 5.03508 10.6269 5.04967 10.6276Z" fill="white"/>
<path fill-rule="evenodd" clip-rule="evenodd" d="M8.11048 6.74887C8.22095 6.87227 8.28798 7.14295 8.07746 7.26635C8.03519 7.30782 8.03002 7.34828 8.07737 7.38984C8.09955 7.40902 8.12045 7.42561 8.14136 7.4422C8.16227 7.45878 8.18318 7.47537 8.20535 7.49456C8.20535 7.49456 7.35501 8.47236 7.17442 8.53871C7.15583 8.56879 6.5707 8.56979 6.54694 8.53871C6.49075 8.52762 6.70998 8.35533 6.98465 8.13944C7.2496 7.93121 7.56613 7.68243 7.73687 7.49866C7.81324 7.43541 7.69977 7.3203 7.58621 7.26635C7.46957 7.12427 7.50467 6.89615 7.65225 6.75307C7.76889 6.69292 7.9278 6.66594 8.11048 6.74887ZM7.92372 7.26635H7.92472C7.97841 7.25286 7.99592 7.18341 7.9629 7.11078C7.92989 7.03823 7.85977 6.98947 7.80608 7.00296H7.80508C7.75138 7.01645 7.73388 7.0849 7.76689 7.15853C7.79882 7.23108 7.86903 7.27984 7.92372 7.26635Z" fill="white"/>
<path d="M2.03819 12.0022C1.71928 12.5123 1.69143 13.2755 1.86794 13.5026C1.96082 13.6105 2.11456 13.6582 2.22912 13.6239C2.4283 13.5368 2.51701 13.1282 2.46857 12.979C2.40254 12.8742 2.34993 12.8577 2.28281 12.9468C2.1425 13.2351 2.08263 13.037 2.07129 12.8763C2.04962 12.5714 2.07855 12.2904 2.11048 12.0685C2.14558 11.8404 2.11048 11.9098 2.03819 12.0022Z" fill="white"/>
<path d="M15.6709 11.1839C15.3614 10.5161 14.9352 9.85768 14.7989 9.60469C14.6627 9.3506 13.6369 7.8554 13.4873 7.68735C13.1539 7.28917 14.027 7.85322 13.3758 7.06315C13.1271 6.84852 13.1127 6.83604 12.9062 6.66078C12.803 6.58614 12.5491 6.45135 12.5038 6.67527C12.4811 6.87331 12.4934 6.98113 12.5264 7.14608C12.5512 7.256 12.7112 7.44055 12.7896 7.54636C13.8308 8.95242 14.7525 10.372 15.6431 12.1555C15.7834 12.0892 15.7525 11.2949 15.6709 11.1839Z" fill="white"/>
<path d="M14.3169 13.4154C14.2561 13.4839 14.4666 13.7773 14.74 13.7773C15.1983 13.7234 15.5997 13.4652 15.9722 12.786C16.0724 12.6274 16.2478 12.2883 16.253 12.026C16.287 10.4851 16.1766 9.28539 15.9465 8.17169C15.931 8.06278 15.9403 7.93528 15.9589 7.90311C15.9878 7.86784 16.089 7.90311 16.1416 7.81599C16.22 7.73515 15.9342 7.07149 15.7711 6.8153C15.7143 6.7012 15.6937 6.62446 15.5977 6.82879C15.4966 6.99466 15.4295 7.28402 15.4377 7.5536C15.6555 9.07167 15.7225 10.399 15.8649 11.916C15.8774 12.0632 15.8546 12.2768 15.7576 12.3608C15.3995 12.7384 14.8804 13.2019 14.3169 13.4154Z" fill="white"/>
<path d="M20.4934 13.4071C20.1663 13.5989 20.1653 13.8178 20.4305 13.825C20.8876 13.7721 21.4274 13.7337 21.801 13.1686C21.9001 13.0099 22.0198 12.5817 22.024 12.3183C22.0591 10.7774 22.0044 9.62746 21.7742 8.51376C21.7598 8.40486 21.7123 8.15496 21.7299 8.12288C21.7598 8.04614 21.9084 8.13117 21.9621 8.04304C22.0406 7.96321 21.5762 7.36389 21.4141 7.1088C21.3552 6.99369 21.3346 6.91796 21.2396 7.12128C21.1385 7.28715 21.1034 7.58481 21.1437 7.8471C21.3862 9.49476 21.5668 10.7329 21.6039 12.1929C21.5832 12.3319 21.5781 12.4065 21.5131 12.5807C21.3707 12.7652 21.2118 12.9964 21.0631 13.1074C20.9145 13.2184 20.5976 13.3252 20.4934 13.4071Z" fill="white"/>
<path d="M20.739 11.9305C20.736 11.5447 20.7452 11.213 20.7318 10.9247C20.7194 10.6375 20.6698 10.4032 20.5698 10.1999C20.4759 9.9811 20.5347 9.80484 20.4903 9.57253C20.447 9.33922 20.4583 8.9908 20.3913 8.71393C20.3738 8.60612 20.317 8.2598 20.3335 8.22762C20.3614 8.14988 20.4636 8.22972 20.5141 8.1405C20.5905 8.05756 20.253 7.18028 20.0817 6.93038C20.0209 6.81837 19.9084 6.85674 19.7711 7.03929C19.6442 7.1585 19.6906 7.43337 19.739 7.69356C20.0683 9.41386 20.3118 10.9713 20.2581 12.6087C20.2426 12.7487 20.7432 12.1939 20.739 11.9305Z" fill="white"/>
<path d="M18.3159 9.79651C18.1095 9.79232 17.6771 9.39314 17.5512 9.15882C17.5038 9.02403 17.5337 8.89334 17.576 8.8166C17.6513 8.76684 17.77 8.71079 17.8577 8.76375C17.8577 8.76375 17.9496 8.89234 17.931 8.90893C18.0435 8.96288 18.091 8.93171 18.1033 8.88614C18.1106 8.8053 18.0703 8.75755 18.0693 8.66842C18.1178 8.42681 18.3913 8.39054 18.4945 8.54401C18.5699 8.63734 18.5967 8.83647 18.6091 8.97017C18.6081 9.03962 18.4976 8.95878 18.4337 8.97537C18.3717 8.99195 18.3563 9.0645 18.3511 9.12984C18.3397 9.30501 18.3201 9.58498 18.3159 9.79651Z" fill="white"/>
<path d="M14.5068 12.3577C14.5636 11.834 14.4862 10.9019 14.4811 10.5928C14.4594 9.86282 14.3408 8.45257 14.284 8.21725C14.221 7.77342 14.4667 8.26601 14.4326 8.00782C14.3531 7.56508 14.1075 7.26433 13.8206 6.85785C13.7277 6.72616 13.7308 6.69919 13.5874 6.89103C13.4285 7.25184 13.5657 7.50073 13.607 7.7818C13.8144 8.69846 13.9351 9.54147 13.9919 10.3752C14.0487 11.2099 14.0652 12.111 14.0146 12.9893C14.1693 12.9954 14.4191 12.7362 14.5068 12.3577Z" fill="white"/>
<path d="M21.4418 11.5179C21.0776 10.904 20.5285 10.2404 20.383 9.99249C20.2354 9.7457 18.9949 8.1374 18.836 7.97563C18.383 7.49653 19.0455 7.89789 18.7504 7.5277C18.4996 7.25192 18.4274 7.16579 18.2138 6.99992C18.1065 6.93048 18.0415 6.79769 18.0064 7.0248C17.9929 7.22284 17.9774 7.45305 17.9908 7.62102C17.9908 7.71434 18.0868 7.88851 18.1704 7.99222C19.2706 9.35062 20.4708 10.738 21.4367 12.4811C21.575 12.4086 21.5295 11.6257 21.4418 11.5179Z" fill="white"/>
<path d="M8.43347 7.22485C8.10222 8.17568 8.6234 9.21683 8.98458 9.11622C9.24571 9.22403 9.41179 8.72633 9.51809 8.17988C9.59138 8.0264 9.64608 8.01082 9.68317 8.08865C9.67392 8.81556 9.73578 8.97623 9.92154 9.19605C10.3354 9.51749 10.678 9.23752 10.7058 9.21054L11.0278 8.886C11.099 8.81027 11.195 8.80517 11.2961 8.87252C11.3952 8.96274 11.3818 9.11831 11.5923 9.22613C11.7698 9.29767 12.1496 9.24271 12.2373 9.08824C12.3559 8.885 12.3849 8.81446 12.4385 8.73772C12.5232 8.62471 12.6677 8.67448 12.6677 8.71075C12.6542 8.774 12.5696 8.83624 12.6274 8.95026C12.7285 9.02599 12.7512 8.97723 12.8111 8.96065C13.0216 8.85903 13.1784 8.3997 13.1784 8.3997C13.1877 8.22863 13.0928 8.24312 13.0308 8.27839C12.9493 8.32715 12.9452 8.34374 12.8637 8.3935C12.7615 8.40908 12.5613 8.47753 12.4643 8.32405C12.3632 8.1395 12.3611 7.88231 12.2847 7.69667C12.2847 7.68218 12.1506 7.40321 12.2755 7.38562C12.3384 7.39701 12.4726 7.43228 12.4932 7.31927C12.5583 7.20936 12.3518 6.89621 12.2115 6.73854C12.0877 6.60275 11.9174 6.58717 11.7544 6.72506C11.6388 6.83187 11.6553 6.95007 11.6326 7.06308C11.6036 7.19168 11.6099 7.35135 11.741 7.52241C11.8555 7.74953 12.065 8.04189 11.9958 8.45356C11.9958 8.45356 11.873 8.6485 11.6604 8.62362C11.5717 8.60394 11.4272 8.56557 11.3508 7.99423C11.292 7.56288 11.3643 6.95727 11.1816 6.6742C11.1156 6.50314 11.068 6.33827 10.9071 6.63064C10.8638 6.74574 10.678 6.91991 10.8132 7.27871C10.9226 7.50583 10.967 7.87602 10.9175 8.28869C10.8411 8.40589 10.8246 8.44527 10.7244 8.56247C10.5841 8.71385 10.4324 8.67548 10.3157 8.61843C10.2063 8.54479 10.1217 8.50642 10.0711 8.27211C10.0804 7.89881 10.101 7.28701 10.0329 7.15741C9.93279 6.95627 9.76771 7.02882 9.6975 7.08997C9.358 7.40102 9.18975 7.92679 9.08762 8.34565C8.99374 8.65151 8.8936 8.56338 8.8234 8.43998C8.65233 8.2794 8.64091 7.01751 8.43347 7.22485Z" fill="white"/>
<path fill-rule="evenodd" clip-rule="evenodd" d="M11.8793 11.0823L13.8205 11.0916L13.9187 11.1487C13.9244 11.1699 13.9191 11.1733 13.9045 11.1828C13.887 11.1941 13.8561 11.214 13.8145 11.2835C13.7371 11.41 13.6246 11.7024 13.6184 11.8974C13.0405 12.084 12.443 12.166 11.8351 12.2396C11.6235 12.3474 11.5193 12.4905 11.5626 12.6513C11.6193 12.7953 11.9359 12.9394 12.0555 12.9938C12.084 13.0068 12.1013 13.0147 12.1013 13.0163C12.1891 13.0732 12.2953 13.2029 12.0756 13.4704C11.1293 13.4278 10.3955 13.0246 10.1416 12.4521C10.0652 12.393 9.98268 12.4521 9.93007 12.5299C9.56064 13.0079 9.19737 13.4393 8.5668 13.6684C8.19111 13.7628 7.80617 13.6104 7.62558 13.3636C7.55122 13.2782 7.52378 13.1874 7.50385 13.1215C7.49087 13.0786 7.48108 13.0462 7.46358 13.0328C7.26023 13.123 5.51311 13.8696 5.73497 13.5222C6.01049 13.2258 6.41639 12.9805 6.84491 12.7215C7.07773 12.5807 7.31723 12.4359 7.54612 12.2768C7.55381 12.2517 7.56257 12.2168 7.573 12.1753C7.62559 11.9656 7.72071 11.5866 7.93515 11.4472C7.94224 11.4482 7.93423 11.5111 7.92403 11.5912C7.91191 11.6864 7.8967 11.8058 7.90005 11.8745C7.90102 11.9071 7.90066 11.9335 7.90039 11.9535C7.89979 11.997 7.89961 12.0102 7.91447 11.9917C7.95891 11.9637 8.74839 11.3405 8.80925 11.1497C8.87762 11.0522 8.84176 10.8193 8.83349 10.7656C8.83252 10.7593 8.83193 10.7555 8.83193 10.7546C8.74444 10.5287 8.63654 10.4247 8.54701 10.3383C8.4845 10.2781 8.43095 10.2265 8.39955 10.148C8.33043 9.896 8.36136 9.60664 8.50585 9.52581C8.63275 9.40961 8.78449 9.42419 8.92381 9.55169C9.08381 9.69477 9.22513 9.97475 9.2654 10.1842C9.25067 10.2291 9.18934 10.2082 9.12676 10.1868C9.07529 10.1693 9.02297 10.1514 8.99501 10.1697C9.1054 10.2858 9.15701 10.4185 9.19828 10.5824C9.30041 11.02 9.26948 11.1901 9.16626 11.4731C8.8631 12.1118 8.48759 12.3636 8.13883 12.5975C8.08387 12.6343 8.02957 12.6707 7.97633 12.7081C7.96599 12.7112 7.95873 12.8958 8.10531 12.9943C8.15692 13.0482 8.36118 13.0762 8.60064 12.9985C9.06603 12.7444 9.54694 12.2757 9.7864 11.7531C9.8566 11.3591 9.75955 10.9402 9.65742 10.5752C9.50358 10.2185 9.322 9.70835 9.322 9.70106C9.31683 9.47814 9.33433 9.4014 9.43139 9.2894C9.46805 9.2634 9.49163 9.23932 9.50958 9.22099C9.56539 9.164 9.56667 9.1627 9.73687 9.33296C10.0186 9.81717 10.1992 10.4446 10.227 10.9993C10.2147 11.1362 10.3107 11.2233 10.355 11.1932C10.3808 10.8718 11.1579 10.4249 11.871 10.3585C11.9467 10.3418 11.9439 10.2347 11.9413 10.1351C11.9401 10.0922 11.939 10.0506 11.9443 10.0184C11.902 9.62022 12.1672 9.25841 12.5377 9.22934C13.0444 9.30498 13.2126 9.57566 13.2209 9.99042C13.1672 10.7847 12.3427 10.9206 11.8793 10.9838C11.8081 11.0108 11.7791 11.044 11.8793 11.0823ZM11.5419 11.9036L11.5181 11.9117C11.3186 11.9797 11.1342 12.0426 11.1332 12.3339C11.202 12.7132 11.0605 12.6329 10.9525 12.5716C10.9407 12.5649 10.9292 12.5584 10.9185 12.5527L10.8919 12.534C10.746 12.4318 10.4262 12.2077 10.3787 11.7564C10.3704 11.6413 10.4602 11.5449 10.6036 11.5449C10.7524 11.5863 10.9502 11.6007 11.1494 11.6151C11.239 11.6216 11.329 11.6282 11.4148 11.6372C11.6399 11.6516 11.7524 11.8288 11.5419 11.9036ZM12.3221 9.93337C12.352 9.88361 12.447 9.88671 12.5368 9.93857C12.6266 9.99142 12.6771 10.0734 12.6483 10.1231C12.6193 10.1729 12.5224 10.1698 12.4326 10.1169C12.3427 10.0651 12.2932 9.98313 12.3221 9.93337Z" fill="white"/>
<path d="M4.35093 7.2353C4.57388 7.34312 4.99492 7.29755 4.97633 6.93455C4.97633 6.90347 4.96807 6.79457 4.96499 6.76549C4.91955 6.65868 4.79574 6.68466 4.7668 6.79557C4.75855 6.83084 4.78231 6.8899 4.75029 6.90858C4.7317 6.92726 4.6605 6.91587 4.66358 6.81626C4.66358 6.78409 4.63982 6.74991 4.62639 6.73022C4.61197 6.71983 4.60263 6.71774 4.57687 6.71774C4.54594 6.71874 4.54594 6.72703 4.52943 6.75401C4.52218 6.77989 4.51193 6.80587 4.51193 6.83694C4.50775 6.87221 4.49542 6.88461 4.46857 6.8898C4.43964 6.8898 4.44589 6.8929 4.42313 6.87841C4.40871 6.86283 4.39111 6.85663 4.39111 6.83075C4.39111 6.80377 4.38494 6.76021 4.37669 6.74162C4.36426 6.72503 4.34467 6.71774 4.32199 6.71154C4.20018 6.71254 4.19193 6.85153 4.19918 6.90548C4.18993 6.91487 4.18476 7.16586 4.35093 7.2353Z" fill="white"/>
<path d="M10.8969 10.0164C11.1208 10.1232 11.6523 10.0621 11.5223 9.71565C11.5223 9.68347 11.515 9.57566 11.5109 9.54558C11.4655 9.43977 11.3417 9.46575 11.3127 9.57566C11.3045 9.61193 11.3293 9.67108 11.2962 9.68867C11.2776 9.70835 11.2064 9.69696 11.2095 9.59635C11.2095 9.56418 11.1858 9.531 11.1723 9.51031C11.1579 9.50102 11.1486 9.49892 11.1228 9.49892C11.0919 9.49992 11.0929 9.50822 11.0754 9.53419C11.0681 9.56117 11.0579 9.58705 11.0579 9.61713C11.0548 9.6534 11.0414 9.66588 11.0156 9.67108C10.9857 9.67108 10.9929 9.67418 10.9692 9.65969C10.9547 9.6441 10.9371 9.63791 10.9371 9.61202C10.9371 9.58404 10.931 9.54048 10.9227 9.5218C10.9114 9.50621 10.8907 9.49901 10.869 9.49272C10.7462 9.49373 10.738 9.63271 10.7452 9.68557C10.7359 9.69596 10.7307 9.94695 10.8969 10.0164Z" fill="white"/>
<path d="M14.7153 8.86323C14.9382 8.97105 15.3582 8.92548 15.3397 8.56248C15.3397 8.5314 15.3324 8.4225 15.3293 8.39342C15.2839 8.28661 15.1601 8.31359 15.1312 8.4235C15.1229 8.45877 15.1467 8.51783 15.1147 8.53651C15.0961 8.55519 15.0249 8.5438 15.0279 8.44419C15.0279 8.41202 15.0032 8.37784 14.9908 8.35815C14.9763 8.34776 14.967 8.34567 14.9412 8.34567C14.9103 8.34776 14.9103 8.35496 14.8938 8.38194C14.8865 8.40892 14.8763 8.4338 14.8763 8.46487C14.8721 8.50014 14.8598 8.51363 14.8329 8.51773C14.804 8.51773 14.8103 8.52083 14.7865 8.50634C14.7731 8.49076 14.7556 8.48556 14.7556 8.45868C14.7556 8.43179 14.7494 8.38814 14.7411 8.36955C14.7287 8.35296 14.7091 8.34567 14.6864 8.34047C14.5646 8.34047 14.5564 8.48046 14.5636 8.53332C14.5543 8.5428 14.5491 8.79379 14.7153 8.86323Z" fill="white"/>
<path d="M16.6926 11.7584C16.3036 12.1992 16.4748 12.9281 16.5625 13.0858C16.6905 13.3429 16.7947 13.5088 17.0444 13.6364C17.2715 13.8044 17.448 13.6997 17.546 13.5815C17.7751 13.3429 17.7782 12.7353 17.8855 12.614C17.9609 12.3921 18.1507 12.4305 18.2426 12.529C18.3324 12.6576 18.4366 12.7405 18.5677 12.8111C18.7813 13.0008 19.0362 13.0351 19.2881 12.8619C19.4594 12.7655 19.5709 12.64 19.672 12.3922C19.7835 12.0925 19.7215 10.7062 19.6989 9.88494C19.6896 9.82069 19.477 8.75575 19.477 8.74327C19.477 8.73187 19.4492 8.1989 19.4254 8.07241C19.4212 8.02155 19.4089 8.00606 19.4626 8.01326C19.5183 8.06092 19.5265 8.06411 19.5616 8.0807C19.6194 8.09 19.671 7.99257 19.637 7.90234C19.4595 7.57261 19.281 7.24388 19.1035 6.91515C19.0612 6.87268 19.0054 6.82602 18.9384 6.92654C18.8724 6.98359 18.8043 7.08731 18.8063 7.22C18.8229 7.45432 18.8631 7.69182 18.8785 7.92613C18.9498 8.3264 19.021 8.72668 19.0912 9.12686C19.1593 9.98437 19.1758 10.6843 19.2429 11.5408C19.2337 11.9037 19.1222 12.22 19.0159 12.2656C19.0159 12.2656 18.8559 12.3589 18.7486 12.2563C18.6701 12.2241 18.3575 11.7326 18.3575 11.7326C18.1975 11.5854 18.0922 11.6279 17.9787 11.7326C17.6649 12.0375 17.5235 12.6067 17.311 12.9987C17.2553 13.0869 17.1005 13.1615 16.9282 12.9925C16.4913 12.392 16.7473 11.5386 16.6926 11.7584Z" fill="white"/>
<path d="M14.8195 6.76247C15.0197 6.8465 15.1611 7.25397 15.1146 7.45311C15.0755 7.6989 14.9692 7.9643 14.8928 7.93012C14.8092 7.89904 14.9496 7.68542 14.8701 7.4614C14.8258 7.31522 14.5523 7.04873 14.5801 6.9699C14.5244 6.80494 14.6978 6.7334 14.8195 6.76247Z" fill="white"/>
<path d="M17.3366 12.0001C17.3789 11.5107 17.3077 11.213 17.2953 10.9247C17.2819 10.6386 16.9713 8.44436 16.9083 8.22764C16.8329 7.81597 17.2107 8.17268 17.1694 7.93317C17.0384 7.63142 16.7123 7.19278 16.6101 6.93048C16.5481 6.81848 16.575 6.71896 16.4367 6.90141C16.3098 7.32037 16.2654 7.66359 16.3139 7.92379C16.6421 9.64509 16.9775 11.075 16.9249 12.7124C17.0806 12.7145 17.2602 12.3547 17.3366 12.0001Z" fill="white"/>
<path d="M20.7556 7.45307C20.9382 7.5443 21.0445 8.05449 21.0249 8.20067C20.9888 8.46615 20.8918 8.75442 20.8217 8.71705C20.7463 8.68288 20.8372 8.32197 20.801 8.20896C20.7607 8.05139 20.512 7.76312 20.5379 7.67809C20.4862 7.49974 20.6441 7.422 20.7556 7.45307Z" fill="white"/>
<path d="M7.19927 11.0751C7.3737 11.1425 7.47583 11.5168 7.45624 11.6246C7.42222 11.8196 7.32934 12.0311 7.26222 12.0031C7.19102 11.9792 7.27773 11.7138 7.24263 11.6308C7.22821 11.4307 6.98567 11.327 6.99084 11.2409C6.9454 11.0813 7.09188 11.0522 7.19927 11.0751Z" fill="white"/>
<path d="M2.5346 6.64112C2.79256 6.71886 2.80708 7.09945 2.78848 7.21036C2.75338 7.4136 2.66259 7.63242 2.59755 7.60334C2.52635 7.57846 2.59447 7.30259 2.56036 7.21756C2.52218 7.09626 2.3044 6.87744 2.32916 6.81209C2.28073 6.67639 2.4283 6.61733 2.5346 6.64112Z" fill="white"/>
<path d="M7.61615 8.43816C7.41905 8.54598 7.34168 8.86541 7.46549 9.05097C7.58005 9.21583 7.76163 9.15468 7.7854 9.15468C7.97941 9.17856 8.09397 8.78968 8.09397 8.78968C8.09397 8.78968 8.10014 8.68077 7.87002 8.88819C7.77297 8.90578 7.76163 8.86951 7.73687 8.81456C7.71728 8.71394 7.72136 8.61232 7.7668 8.51071C7.80191 8.41428 7.72662 8.37181 7.61615 8.43816Z" fill="white"/>
<path d="M9.10013 6.49484C9.00109 6.56119 8.8029 6.76752 8.79673 7.00393C8.79156 7.13772 8.7668 7.13772 8.85351 7.22275C8.91646 7.31398 8.98041 7.30568 9.10739 7.23833C9.18068 7.18547 9.20444 7.1492 9.2292 7.05898C9.25914 6.9065 9.0692 7.13052 9.04553 6.96146C9.00326 6.80388 9.12499 6.74063 9.23954 6.58816C9.24363 6.48445 9.24154 6.4109 9.10013 6.49484Z" fill="white"/>
<path d="M10.2942 6.70753C10.2509 6.80186 10.2004 7.29856 10.2086 7.29856C10.1746 7.44583 10.3624 7.50908 10.4481 7.31934C10.5761 6.97092 10.5761 6.82364 10.5853 6.67536C10.5449 6.45035 10.3943 6.45764 10.2942 6.70753Z" fill="white"/>
<path d="M17.8195 10.5535C17.8443 10.5276 18.8794 9.78817 18.8794 9.78817C18.9857 9.75081 18.9619 10.1698 18.9145 10.1667C18.9341 10.2496 17.8928 10.9599 17.8195 10.9308C17.7679 10.9682 17.7164 10.6447 17.8195 10.5535Z" fill="white"/>
<path d="M18.7628 10.5535C18.9455 10.6448 19.0177 11.1809 18.9971 11.3271C19.0044 11.6102 18.8227 11.8373 18.7525 11.7999C18.6771 11.7667 18.7586 11.4484 18.7225 11.3354C18.6823 11.1778 18.5275 10.8802 18.5543 10.7951C18.5027 10.6168 18.6513 10.5224 18.7628 10.5535Z" fill="white"/>
<path d="M12.608 12.8575C12.6792 12.7517 12.9021 12.6003 12.9073 12.6003C13.0105 12.5485 13.1096 12.6408 13.1034 12.6345C13.1209 12.7382 13.0395 12.8325 13.0642 12.9704C13.0869 13.0264 13.1034 13.0886 13.2045 13.0647C13.3686 12.9341 13.5214 12.9258 13.6854 12.9186C13.8113 12.9248 13.8165 13.1394 13.7371 13.1405C13.4337 13.2079 13.2974 13.2888 13.0807 13.3728C12.9775 13.4329 12.8898 13.3562 12.8898 13.3479C12.8898 13.3396 12.8299 13.2888 12.8723 13.152C12.8795 13.0431 12.8362 12.9829 12.7454 12.9954C12.6763 13.0328 12.6164 13.0565 12.5823 12.9778C12.5687 12.9208 12.5635 12.8918 12.608 12.8575Z" fill="white"/>
<path d="M19.8515 13.1469C19.8959 13.204 19.9248 13.2547 19.8484 13.3481C19.7762 13.4155 19.7246 13.4528 19.6523 13.5191C19.6172 13.5783 19.5956 13.6674 19.7009 13.6954C19.8939 13.7503 20.3418 13.459 20.3418 13.4528C20.414 13.3978 20.3892 13.2952 20.384 13.2952C20.3418 13.2464 20.2468 13.2744 20.1818 13.2661C20.1518 13.2661 20.0507 13.2516 20.0992 13.1624C20.1384 13.1075 20.1529 13.0733 20.1797 13.0048C20.2106 12.9385 20.1839 12.8939 20.0755 12.8576C19.964 12.8368 19.9196 12.8472 19.7968 12.8576C19.7308 12.871 19.708 12.9011 19.6967 12.982C19.7019 13.1044 19.7752 13.0982 19.8515 13.1469Z" fill="white"/>
<path d="M18.2407 16.8094H16.8862V16.3557C16.8862 16.1053 16.6839 15.902 16.4347 15.902C16.1855 15.902 15.9832 16.1053 15.9832 16.3557V16.8094H8.7592H7.85618H5.14722C5.14722 16.8094 5.14722 17.7167 7.85618 17.7167H15.9832V18.1704C15.9832 18.4208 16.1855 18.624 16.4347 18.624C16.6839 18.624 16.8862 18.4208 16.8862 18.1704V17.7167H17.7892V18.1704C17.7892 18.4208 17.9915 18.624 18.2407 18.624C18.4899 18.624 18.6922 18.4208 18.6922 18.1704V17.263C18.6922 17.0126 18.49 16.8094 18.2407 16.8094Z" fill="white"/>
</g>
<defs>
<clipPath id="clip0_17848_181">
<path d="M0 12C0 5.37258 5.37258 0 12 0C18.6274 0 24 5.37258 24 12C24 18.6274 18.6274 24 12 24C5.37258 24 0 18.6274 0 12Z" fill="white"/>
</clipPath>
</defs>
</svg>
