<svg width="40" height="40" viewBox="0 0 40 40" fill="none" xmlns="http://www.w3.org/2000/svg">
<path d="M7.74979 1.5H32.2485C32.3772 1.5 32.5042 1.50346 32.633 1.51038C32.6939 1.51384 32.7531 1.51903 32.814 1.52249C32.8801 1.52768 32.9445 1.53114 33.0106 1.53806C33.0871 1.54498 33.1619 1.55536 33.2368 1.56574C33.2855 1.57266 33.3342 1.57785 33.3829 1.58477C33.4647 1.59688 33.5465 1.61073 33.6283 1.6263C33.67 1.63322 33.7118 1.64014 33.7535 1.64879C33.8353 1.66436 33.9171 1.68339 33.9989 1.70242C34.0406 1.71107 34.0806 1.72145 34.1224 1.7301C34.2007 1.74913 34.279 1.77162 34.3573 1.79238C34.4008 1.80449 34.446 1.81661 34.4895 1.83045C34.5626 1.85294 34.634 1.87543 34.7053 1.89965C34.754 1.91522 34.8045 1.93252 34.8532 1.94982C34.9176 1.97231 34.9819 1.99653 35.0463 2.02249C35.102 2.04325 35.1577 2.06574 35.2134 2.08823C35.269 2.11072 35.3247 2.13494 35.3787 2.15916C35.4413 2.18684 35.5039 2.21452 35.5648 2.24394C35.6118 2.26643 35.6588 2.28892 35.704 2.31314C35.7719 2.34601 35.8397 2.38061 35.9059 2.41694C35.9459 2.43771 35.9859 2.46193 36.0259 2.48269C36.0973 2.52248 36.1669 2.56227 36.2382 2.60379C36.2747 2.62628 36.3095 2.64878 36.3461 2.67127C36.4174 2.71452 36.487 2.7595 36.5566 2.80621C36.5932 2.83043 36.628 2.85466 36.6628 2.88061C36.7306 2.92732 36.7985 2.97403 36.8646 3.02247C36.9046 3.05189 36.9429 3.08303 36.9812 3.11244C37.0403 3.15915 37.1012 3.20413 37.1604 3.25257C37.2126 3.2941 37.2613 3.33908 37.3118 3.38233C37.357 3.42039 37.4022 3.45845 37.4475 3.49825C37.6371 3.66952 37.8181 3.84945 37.9903 4.03803C38.0304 4.08128 38.0686 4.128 38.1069 4.17298C38.1504 4.22315 38.1939 4.27159 38.2374 4.3235C38.2861 4.38232 38.3314 4.44114 38.3784 4.50169C38.4079 4.54149 38.4393 4.57955 38.4688 4.61761C38.5176 4.68335 38.5645 4.75083 38.6115 4.8183C38.6359 4.8529 38.662 4.8875 38.6863 4.92384C38.7333 4.99304 38.7768 5.06397 38.822 5.13318C38.8447 5.16951 38.8673 5.20411 38.8899 5.24044C38.9317 5.30964 38.9717 5.38058 39.0117 5.45151C39.0343 5.4913 39.0569 5.53109 39.0778 5.57089C39.1144 5.63663 39.1474 5.7041 39.1822 5.77158C39.2048 5.81829 39.2292 5.865 39.2518 5.91171C39.2814 5.97227 39.3092 6.03455 39.3353 6.09683C39.3597 6.15219 39.3841 6.20583 39.4067 6.26119C39.4293 6.31655 39.4502 6.37192 39.4728 6.42728C39.4972 6.49129 39.5233 6.5553 39.5459 6.61932C39.5633 6.66776 39.5789 6.7162 39.5963 6.76637C39.6207 6.83731 39.645 6.90997 39.6659 6.98264C39.6798 7.02589 39.6903 7.07087 39.7042 7.11412C39.7268 7.19198 39.7477 7.26983 39.7686 7.34768C39.779 7.38747 39.7877 7.429 39.7964 7.47052C39.8156 7.55183 39.8347 7.63315 39.8504 7.71619C39.8591 7.75771 39.866 7.79923 39.873 7.84076C39.8869 7.92207 39.9026 8.00338 39.9147 8.0847C39.9217 8.13314 39.9269 8.18158 39.9339 8.22829C39.9443 8.30442 39.953 8.37881 39.9617 8.45494C39.9687 8.51895 39.9722 8.58469 39.9774 8.64871C39.9826 8.70926 39.9878 8.76981 39.9896 8.83036C39.9965 8.95666 40 9.08469 40 9.21098C40 9.33901 39.9965 9.4653 39.9896 9.5916C39.9861 9.65215 39.9809 9.71271 39.9774 9.77326C39.9722 9.83727 39.9687 9.90302 39.9617 9.96703C39.9548 10.0432 39.9443 10.1175 39.9339 10.1937C39.9269 10.2421 39.9217 10.2906 39.9147 10.3373C39.9026 10.4186 39.8886 10.4999 39.873 10.5812C39.866 10.6227 39.8591 10.6643 39.8504 10.7058C39.8347 10.7888 39.8156 10.8701 39.7964 10.9514C39.7877 10.993 39.779 11.0328 39.7686 11.0743C39.7494 11.1539 39.7268 11.23 39.7042 11.3078C39.692 11.3511 39.6798 11.3961 39.6659 11.4393C39.6433 11.512 39.6207 11.5829 39.5963 11.6556C39.5807 11.704 39.5633 11.7542 39.5459 11.8026C39.5233 11.8667 39.4972 11.9307 39.4728 11.9947C39.4519 12.05 39.4293 12.1054 39.4067 12.1608C39.3841 12.2161 39.3597 12.2715 39.3353 12.3251C39.3075 12.3874 39.2797 12.4497 39.2518 12.5103C39.2292 12.557 39.2066 12.6037 39.1822 12.6504C39.1492 12.7179 39.1144 12.7853 39.0778 12.8511C39.0569 12.8909 39.0326 12.9307 39.0117 12.9705C38.9717 13.0414 38.9317 13.1106 38.8899 13.1815C38.8673 13.2179 38.8447 13.2525 38.822 13.2888C38.7785 13.3597 38.7333 13.4289 38.6863 13.4981C38.662 13.5345 38.6376 13.5691 38.6115 13.6037C38.5645 13.6711 38.5176 13.7386 38.4688 13.8044C38.4393 13.8441 38.4079 13.8822 38.3784 13.9203C38.3314 13.9808 38.2861 14.0396 38.2374 14.0985C38.1957 14.1486 38.1522 14.1988 38.1087 14.2473C38.0686 14.2922 38.0304 14.339 37.9903 14.3822C37.9051 14.4756 37.8163 14.5691 37.7259 14.659L16.0181 36.2435C12.9923 39.2522 8.08561 39.2522 5.05981 36.2435C2.03402 33.2349 2.03402 28.3561 5.05981 25.3475L13.5404 16.915H7.74805C3.46775 16.915 0 13.4653 0 9.21098C0.0017395 4.94979 3.46949 1.5 7.74979 1.5Z" fill="#FF7272"/>
</svg>
