<svg width="24" height="24" viewBox="0 0 24 24" fill="none" xmlns="http://www.w3.org/2000/svg">
<path d="M12.866 20.5C13.1421 20.0217 13.7539 19.8576 14.2322 20.1338C14.7104 20.4099 14.8744 21.0218 14.5984 21.5C14.3351 21.956 13.9558 22.3344 13.4997 22.5977C13.0437 22.8609 12.5263 23 11.9997 23C11.4732 23 10.9557 22.8609 10.4997 22.5977C10.0439 22.3344 9.66533 21.9559 9.40209 21.5C9.12592 21.0217 9.29002 20.41 9.7683 20.1338C10.2465 19.8579 10.8574 20.022 11.1335 20.5C11.2213 20.652 11.3478 20.7785 11.4997 20.8662C11.6517 20.9539 11.8243 21 11.9997 21C12.1752 21 12.3478 20.9539 12.4997 20.8662C12.6517 20.7785 12.7782 20.652 12.866 20.5ZM16.9997 8C16.9997 6.67409 16.4733 5.40249 15.5359 4.46484C14.5982 3.52716 13.3258 3 11.9997 3C10.6738 3.00007 9.40221 3.52722 8.46459 4.46484C7.52699 5.40251 6.99975 6.67398 6.99975 8C6.99975 10.3543 6.63074 11.9982 6.03295 13.2637C5.44249 14.5136 4.65894 15.3205 4.00072 16H19.9997C19.3402 15.3201 18.5577 14.5128 17.9675 13.2637C17.3695 11.998 16.9997 10.3541 16.9997 8ZM18.9997 8C18.9997 10.1447 19.3357 11.4789 19.7751 12.4092C20.1056 13.1086 20.5128 13.6223 20.9763 14.125L21.4578 14.6309L21.4792 14.6543C21.7401 14.941 21.9123 15.2971 21.9744 15.6797C22.0364 16.0621 21.9864 16.4543 21.8298 16.8086C21.6731 17.1629 21.4162 17.4644 21.0915 17.6758C20.8072 17.8608 20.4811 17.9708 20.1443 17.9951L19.9997 18H3.99975C3.61213 17.9997 3.23258 17.8866 2.90795 17.6748C2.58331 17.463 2.32702 17.1613 2.17064 16.8066C2.01432 16.452 1.9645 16.0593 2.02709 15.6768C2.08971 15.2944 2.26209 14.9386 2.52318 14.6523L2.54369 14.6299C3.20814 13.9439 3.78383 13.3417 4.22436 12.4092C4.6638 11.4789 4.99975 10.1447 4.99975 8C4.99975 6.14348 5.73777 4.36256 7.05053 3.0498C8.36319 1.73734 10.1435 1.00007 11.9997 1C13.8562 1 15.6372 1.73713 16.9499 3.0498C18.2627 4.36256 18.9997 6.14349 18.9997 8Z" fill="#1A1A1A"/>
</svg>
