<svg width="24" height="24" viewBox="0 0 24 24" fill="none" xmlns="http://www.w3.org/2000/svg">
<path d="M7 6V2C7 1.44772 7.44772 1 8 1C8.55228 1 9 1.44772 9 2V6C9 6.55228 8.55228 7 8 7C7.44772 7 7 6.55228 7 6ZM15 6V2C15 1.44772 15.4477 1 16 1C16.5523 1 17 1.44772 17 2V6C17 6.55228 16.5523 7 16 7C15.4477 7 15 6.55228 15 6Z" fill="#1A1A1A"/>
<path d="M20 6C20 5.44772 19.5523 5 19 5H5C4.44772 5 4 5.44772 4 6V20C4 20.5523 4.44772 21 5 21H19C19.5523 21 20 20.5523 20 20V6ZM22 20C22 21.6569 20.6569 23 19 23H5C3.34315 23 2 21.6569 2 20V6C2 4.34315 3.34315 3 5 3H19C20.6569 3 22 4.34315 22 6V20Z" fill="#1A1A1A"/>
<path d="M14.293 13.293C14.6835 12.9024 15.3165 12.9024 15.707 13.293C16.0976 13.6835 16.0976 14.3165 15.707 14.707L11.707 18.707C11.3165 19.0976 10.6835 19.0976 10.293 18.707L8.29297 16.707C7.90244 16.3165 7.90244 15.6835 8.29297 15.293C8.68349 14.9024 9.31651 14.9024 9.70703 15.293L11 16.5859L14.293 13.293ZM21 9C21.5523 9 22 9.44772 22 10C22 10.5523 21.5523 11 21 11H3C2.44772 11 2 10.5523 2 10C2 9.44772 2.44772 9 3 9H21Z" fill="#1A1A1A"/>
</svg>
