<svg width="24" height="24" viewBox="0 0 24 24" fill="none" xmlns="http://www.w3.org/2000/svg">
<path d="M5.83821 3.37528C7.87096 1.92313 10.3518 1.2355 12.8421 1.43387C15.3323 1.63226 17.6723 2.70371 19.4495 4.45926C21.2268 6.21491 22.3272 8.54191 22.556 11.0296C22.7847 13.5171 22.1276 16.0057 20.7005 18.0559C19.2733 20.1062 17.1674 21.5864 14.7552 22.2356C12.3558 22.8814 9.80664 22.6629 7.55207 21.6204C7.31239 21.5302 7.05266 21.5078 6.8011 21.555L3.42512 22.5432C3.42043 22.5446 3.4152 22.5459 3.41047 22.5472C3.14729 22.6169 2.87066 22.6181 2.60676 22.5511C2.34265 22.4839 2.09976 22.3505 1.90168 22.1634C1.70367 21.9762 1.55689 21.7415 1.47493 21.4817C1.39298 21.2218 1.37803 20.945 1.43293 20.678L1.45051 20.6145L2.50422 17.3557C2.55739 17.0922 2.534 16.8192 2.43586 16.5686C1.36485 14.3263 1.11513 11.7784 1.73176 9.3704C2.35149 6.95063 3.80577 4.82735 5.83821 3.37528ZM12.7464 2.63016C10.5382 2.45433 8.33899 3.06415 6.53645 4.35184C4.73385 5.63958 3.44345 7.52219 2.89387 9.66825C2.37864 11.6803 2.54526 13.8026 3.36067 15.7044L3.53254 16.0813L3.55012 16.1204C3.74127 16.6026 3.78369 17.1314 3.67219 17.638C3.66805 17.6568 3.6625 17.6753 3.65657 17.6936L2.60676 20.9358C2.59663 20.9976 2.60062 21.0606 2.61946 21.1204C2.63994 21.1854 2.67638 21.2445 2.7259 21.2913C2.77532 21.3379 2.83583 21.3712 2.90168 21.388C2.96673 21.4045 3.03496 21.4037 3.09992 21.387L6.50129 20.3929C6.51826 20.3879 6.53571 20.3836 6.55305 20.3802C6.97121 20.2972 7.40249 20.3193 7.80891 20.4417L7.98176 20.5003L8.02278 20.5169C10.03 21.4543 12.3044 21.6532 14.4437 21.0774C16.5827 20.5016 18.4496 19.1885 19.7152 17.3704C20.9807 15.5523 21.5634 13.3458 21.3607 11.1399C21.1578 8.93391 20.1828 6.86967 18.6068 5.31278C17.0307 3.75588 14.9548 2.80608 12.7464 2.63016Z" fill="#1A1A1A"/>
<rect x="20" width="4" height="4" rx="2" fill="#1A1A1A"/>
<path d="M8.99902 13.0986C9.38735 13.0986 9.70215 12.7838 9.70215 12.3955C9.70215 12.0072 9.38735 11.6924 8.99902 11.6924C8.6107 11.6924 8.2959 12.0072 8.2959 12.3955C8.2959 12.7838 8.6107 13.0986 8.99902 13.0986Z" fill="#1A1A1A"/>
<path d="M11.8115 13.0986C12.1998 13.0986 12.5146 12.7838 12.5146 12.3955C12.5146 12.0072 12.1998 11.6924 11.8115 11.6924C11.4232 11.6924 11.1084 12.0072 11.1084 12.3955C11.1084 12.7838 11.4232 13.0986 11.8115 13.0986Z" fill="#1A1A1A"/>
<path d="M14.624 13.0986C15.0123 13.0986 15.3271 12.7838 15.3271 12.3955C15.3271 12.0072 15.0123 11.6924 14.624 11.6924C14.2357 11.6924 13.9209 12.0072 13.9209 12.3955C13.9209 12.7838 14.2357 13.0986 14.624 13.0986Z" fill="#1A1A1A"/>
</svg>
