<svg width="24" height="24" viewBox="0 0 24 24" fill="none" xmlns="http://www.w3.org/2000/svg">
<path d="M5.29295 6.29289C5.68348 5.90237 6.31649 5.90237 6.70702 6.29289L11.707 11.2929C12.0975 11.6834 12.0975 12.3164 11.707 12.707L6.70702 17.707C6.31649 18.0975 5.68348 18.0975 5.29295 17.707C4.90243 17.3164 4.90243 16.6834 5.29295 16.2929L9.58592 11.9999L5.29295 7.70696C4.90243 7.31643 4.90243 6.68342 5.29295 6.29289ZM12.293 6.29289C12.6835 5.90237 13.3165 5.90237 13.707 6.29289L18.707 11.2929C19.0975 11.6834 19.0975 12.3164 18.707 12.707L13.707 17.707C13.3165 18.0975 12.6835 18.0975 12.293 17.707C11.9024 17.3164 11.9024 16.6834 12.293 16.2929L16.5859 11.9999L12.293 7.70696C11.9024 7.31643 11.9024 6.68342 12.293 6.29289Z" fill="#1A1A1A"/>
</svg>
