<svg width="24" height="24" viewBox="0 0 24 24" fill="none" xmlns="http://www.w3.org/2000/svg">
<path d="M20.9999 14.5001C20.9999 13.5719 20.6308 12.6819 19.9745 12.0255C19.3181 11.3692 18.4281 11.0001 17.4999 11.0001H15.7098C15.2678 11 14.8783 10.7098 14.7518 10.2862C14.4339 9.21994 13.8254 8.26216 12.995 7.52159C12.1646 6.7812 11.1441 6.2861 10.0487 6.09191C8.95322 5.8978 7.82512 6.01207 6.79087 6.42198C5.7565 6.83196 4.85631 7.52215 4.19126 8.41417C3.52635 9.30614 3.12286 10.3655 3.02524 11.4737C2.92762 12.5821 3.13963 13.696 3.63852 14.6905C4.13742 15.6851 4.90365 16.5211 5.85044 17.1056C6.79708 17.6899 7.8874 17.9997 8.99985 18.0001H17.4999C18.4281 18.0001 19.3181 17.631 19.9745 16.9747C20.6308 16.3183 20.9999 15.4284 20.9999 14.5001ZM22.9999 14.5001C22.9999 15.9586 22.4207 17.3574 21.3895 18.3888C20.358 19.4202 18.9585 20.0001 17.4999 20.0001H8.99985C7.51635 19.9997 6.06202 19.587 4.79966 18.8077C3.53727 18.0284 2.51661 16.9131 1.85141 15.587C1.18621 14.2609 0.902885 12.7758 1.03305 11.298C1.16325 9.8204 1.70126 8.40808 2.58774 7.21886C3.47451 6.02946 4.67533 5.10924 6.05454 4.56261C7.43362 4.01612 8.93764 3.86422 10.3983 4.12316C11.859 4.38212 13.2188 5.04208 14.326 6.02941C15.2443 6.84825 15.9579 7.86584 16.4168 9.00011H17.4999C18.9585 9.00011 20.358 9.57999 21.3895 10.6114C22.4207 11.6428 22.9999 13.0416 22.9999 14.5001Z" fill="#1A1A1A"/>
</svg>
