<svg width="24" height="24" viewBox="0 0 24 24" fill="none" xmlns="http://www.w3.org/2000/svg">
<path d="M19 12C19 8.13401 15.866 5 12 5C8.13401 5 5 8.13401 5 12C5 15.866 8.13401 19 12 19C15.866 19 19 15.866 19 12ZM21 12C21 16.9706 16.9706 21 12 21C7.02944 21 3 16.9706 3 12C3 7.02944 7.02944 3 12 3C16.9706 3 21 7.02944 21 12Z" fill="#1A1A1A"/>
<path d="M5.29295 17.2929C5.68348 16.9024 6.31649 16.9024 6.70702 17.2929C7.09754 17.6834 7.09754 18.3164 6.70702 18.707L3.70702 21.707C3.31649 22.0975 2.68348 22.0975 2.29295 21.707C1.90243 21.3164 1.90243 20.6834 2.29295 20.2929L5.29295 17.2929ZM17.293 17.2929C17.6835 16.9024 18.3165 16.9024 18.707 17.2929L21.707 20.2929C22.0975 20.6834 22.0975 21.3164 21.707 21.707C21.3165 22.0975 20.6835 22.0975 20.293 21.707L17.293 18.707C16.9024 18.3164 16.9024 17.6834 17.293 17.2929ZM2.29295 2.29289C2.68348 1.90237 3.31649 1.90237 3.70702 2.29289L6.70702 5.29289C7.09754 5.68342 7.09754 6.31643 6.70702 6.70696C6.31649 7.09748 5.68348 7.09748 5.29295 6.70696L2.29295 3.70696C1.90243 3.31643 1.90243 2.68342 2.29295 2.29289ZM20.293 2.29289C20.6835 1.90237 21.3165 1.90237 21.707 2.29289C22.0975 2.68342 22.0975 3.31643 21.707 3.70696L18.707 6.70696C18.3165 7.09748 17.6835 7.09748 17.293 6.70696C16.9024 6.31643 16.9024 5.68342 17.293 5.29289L20.293 2.29289Z" fill="#1A1A1A"/>
</svg>
