<svg width="24" height="24" viewBox="0 0 24 24" fill="none" xmlns="http://www.w3.org/2000/svg">
<path d="M9.12295 9.22119C9.50664 8.82408 10.1398 8.81314 10.537 9.19678C10.9341 9.58047 10.9451 10.2136 10.5614 10.6108C10.1972 10.9879 9.99546 11.4929 9.99991 12.0171C10.0045 12.5415 10.215 13.0437 10.5858 13.4145C10.9566 13.7852 11.4581 13.9959 11.9823 14.0005C12.5067 14.005 13.0124 13.8033 13.3896 13.439C13.7868 13.0553 14.4199 13.0661 14.8036 13.4634C15.1871 13.8606 15.1762 14.4938 14.7792 14.8774C14.0248 15.6061 13.0135 16.0086 11.9647 15.9995C10.9162 15.9903 9.9133 15.57 9.17178 14.8286C8.43015 14.087 8.00902 13.0835 7.99991 12.0347C7.99085 10.986 8.39437 9.97555 9.12295 9.22119ZM10.6151 4.08349C13.1612 3.78016 15.7367 4.31805 17.9481 5.61572C20.0213 6.83228 21.6681 8.6534 22.6708 10.8296L22.8622 11.27L22.8759 11.3032C23.0424 11.7521 23.0424 12.246 22.8759 12.6948C22.8717 12.7062 22.8668 12.7178 22.8622 12.729C22.4601 13.7022 21.929 14.6173 21.2841 15.4497C20.9458 15.8859 20.3182 15.9655 19.8817 15.6274C19.4452 15.2892 19.3657 14.6607 19.704 14.2241C20.232 13.5426 20.6667 12.794 20.9989 11.9985C20.1859 10.0464 18.7599 8.4109 16.9355 7.34033C15.1006 6.26377 12.9639 5.81713 10.8515 6.06885C10.3031 6.1342 9.80549 5.74225 9.74014 5.19385C9.67506 4.64563 10.0669 4.14883 10.6151 4.08349Z" fill="#1A1A1A"/>
<path d="M1.29249 1.29289C1.68302 0.902369 2.31701 0.902369 2.70753 1.29289L22.7075 21.2929C23.0977 21.6834 23.0977 22.3165 22.7075 22.707C22.317 23.0975 21.683 23.0975 21.2925 22.707L17.313 18.7275C16.0431 19.3714 14.6657 19.7821 13.2456 19.9335C11.57 20.1121 9.87517 19.9284 8.27687 19.3945C6.67858 18.8604 5.21373 17.9887 3.98194 16.8388C2.75016 15.6888 1.77965 14.2873 1.13722 12.7294C1.13272 12.7185 1.12863 12.7073 1.12452 12.6962C0.957841 12.2472 0.957841 11.7527 1.12452 11.3036L1.13722 11.2704C1.94423 9.31344 3.26287 7.61964 4.94288 6.35735L1.29249 2.70696C0.902304 2.3165 0.902304 1.68335 1.29249 1.29289ZM6.37355 7.78801C4.87963 8.84372 3.70804 10.3014 3.0005 11.9989C3.5336 13.2787 4.3327 14.4306 5.3462 15.3769C6.36835 16.3311 7.58437 17.0539 8.91066 17.497C10.2369 17.9401 11.6432 18.0934 13.0337 17.9452C13.9915 17.8431 14.9248 17.596 15.8071 17.2216L6.37355 7.78801Z" fill="#1A1A1A"/>
</svg>
