<svg width="24" height="24" viewBox="0 0 24 24" fill="none" xmlns="http://www.w3.org/2000/svg">
<path d="M12.0005 4.00073C14.3273 4.00083 16.6019 4.69188 18.5357 5.98608C20.3485 7.19942 21.7854 8.89166 22.689 10.8708L22.8628 11.2712L22.8755 11.3044C23.0421 11.7534 23.0421 12.2471 22.8755 12.696C22.8714 12.7071 22.8673 12.7183 22.8628 12.7292C21.9756 14.8805 20.4695 16.7201 18.5357 18.0144C16.6019 19.3086 14.3273 19.9997 12.0005 19.9998C9.6735 19.9998 7.3982 19.3087 5.46436 18.0144C3.53057 16.7201 2.02441 14.8804 1.13721 12.7292C1.13271 12.7183 1.12863 12.7071 1.12452 12.696C0.957897 12.2471 0.957952 11.7534 1.12452 11.3044L1.13721 11.2712C2.02439 9.12009 3.53062 7.28037 5.46436 5.98608C7.3982 4.69179 9.6735 4.00073 12.0005 4.00073ZM12.0005 6.00073C10.0696 6.00073 8.18134 6.5742 6.57667 7.64819C4.98223 8.71542 3.73842 10.2293 3.00049 11.9998C3.73841 13.7705 4.98199 15.2849 6.57667 16.3523C8.18134 17.4263 10.0696 17.9998 12.0005 17.9998C13.9312 17.9997 15.8188 17.4262 17.4233 16.3523C19.0179 15.285 20.2606 13.7704 20.9985 11.9998C20.2606 10.2294 19.0177 8.71535 17.4233 7.64819C15.8188 6.57429 13.9312 6.00083 12.0005 6.00073Z" fill="#1A1A1A"/>
<path d="M14 12C14 10.8954 13.1046 10 12 10C10.8954 10 10 10.8954 10 12C10 13.1046 10.8954 14 12 14C13.1046 14 14 13.1046 14 12ZM16 12C16 14.2091 14.2091 16 12 16C9.79086 16 8 14.2091 8 12C8 9.79086 9.79086 8 12 8C14.2091 8 16 9.79086 16 12Z" fill="#1A1A1A"/>
</svg>
