<svg width="24" height="24" viewBox="0 0 24 24" fill="none" xmlns="http://www.w3.org/2000/svg">
<path d="M18 4.49951C17.9999 4.10184 17.8417 3.72017 17.5605 3.43896C17.2793 3.1578 16.8977 2.99951 16.5 2.99951C16.4942 2.99951 16.4882 2.99961 16.4824 2.99951C15.8758 2.989 15.1903 3.27883 14.5303 4.01221C13.8824 4.73221 13.336 5.80599 13 7.13037V19.9995H18C18.2651 19.9995 18.5195 19.8949 18.707 19.7075C18.8946 19.52 19 19.2647 19 18.9995V10.9995C19.0002 10.4474 19.4479 9.99951 20 9.99951C20.5521 9.99951 20.9998 10.4474 21 10.9995V18.9995C21 19.7952 20.6837 20.559 20.1211 21.1216C19.5585 21.684 18.7955 21.9995 18 21.9995H6C5.20448 21.9995 4.44149 21.684 3.87891 21.1216C3.3163 20.559 3 19.7952 3 18.9995V10.9995C3.00024 10.4474 3.44786 9.99951 4 9.99951C4.55214 9.99951 4.99976 10.4474 5 10.9995V18.9995C5 19.2647 5.10543 19.52 5.29297 19.7075C5.48048 19.8949 5.73491 19.9995 6 19.9995H11V7.13037C10.664 5.80599 10.1176 4.73221 9.46973 4.01221C8.80968 3.27882 8.1242 2.989 7.51758 2.99951C7.51177 2.99961 7.50581 2.99951 7.5 2.99951C7.10228 2.99951 6.72074 3.1578 6.43945 3.43896C6.15825 3.72017 6.00012 4.10184 6 4.49951C6 4.89734 6.15815 5.27973 6.43945 5.56104C6.72073 5.84217 7.1023 5.99951 7.5 5.99951C8.05214 5.99951 8.49976 6.44743 8.5 6.99951C8.5 7.5518 8.05228 7.99951 7.5 7.99951C6.57187 7.99951 5.68174 7.63131 5.02539 6.9751C4.36901 6.31872 4 5.42777 4 4.49951C4.00012 3.57141 4.36912 2.68118 5.02539 2.0249C5.68175 1.36866 6.57185 0.999512 7.5 0.999512V1.00146C8.81589 0.984366 10.0149 1.62857 10.9561 2.67432C11.35 3.11203 11.6985 3.61899 12 4.17822C12.3015 3.61899 12.65 3.11203 13.0439 2.67432C13.9851 1.62857 15.1841 0.984365 16.5 1.00146V0.999512C17.4282 0.999512 18.3183 1.36866 18.9746 2.0249C19.6309 2.68118 19.9999 3.57141 20 4.49951C20 5.42777 19.631 6.31872 18.9746 6.9751C18.3183 7.63131 17.4281 7.99951 16.5 7.99951C15.9477 7.99951 15.5 7.5518 15.5 6.99951C15.5002 6.44743 15.9479 5.99951 16.5 5.99951C16.8977 5.99951 17.2793 5.84217 17.5605 5.56104C17.8419 5.27973 18 4.89734 18 4.49951Z" fill="#1A1A1A"/>
<path d="M4 8V10H20V8H4ZM22 10C22 11.1046 21.1046 12 20 12H4C2.89543 12 2 11.1046 2 10V8C2 6.89543 2.89543 6 4 6H20C21.1046 6 22 6.89543 22 8V10Z" fill="#1A1A1A"/>
</svg>
