<svg width="24" height="24" viewBox="0 0 24 24" fill="none" xmlns="http://www.w3.org/2000/svg">
<path d="M21 12C21 7.02944 16.9706 3 12 3C7.02944 3 3 7.02944 3 12C3 16.9706 7.02944 21 12 21C16.9706 21 21 16.9706 21 12ZM23 12C23 18.0751 18.0751 23 12 23C5.92487 23 1 18.0751 1 12C1 5.92487 5.92487 1 12 1C18.0751 1 23 5.92487 23 12Z" fill="#1A1A1A"/>
<path d="M12 1C12.2737 1 12.5359 1.11237 12.7246 1.31055C15.2385 3.95031 16.7331 7.38333 16.9668 11H22C22.5523 11 23 11.4477 23 12C23 12.5523 22.5523 13 22 13H16.9668C16.7331 16.6167 15.2385 20.0497 12.7246 22.6895C12.5359 22.8876 12.2737 23 12 23C11.7263 23 11.4641 22.8876 11.2754 22.6895C8.76149 20.0497 7.26691 16.6167 7.0332 13H2C1.44772 13 1 12.5523 1 12C1 11.4477 1.44772 11 2 11H7.0332C7.26691 7.38333 8.76148 3.95031 11.2754 1.31055C11.4641 1.11237 11.7263 1 12 1ZM9.03711 13C9.24041 15.7382 10.2753 18.3489 12 20.4834C13.7247 18.3489 14.7596 15.7382 14.9629 13H9.03711ZM12 3.51562C10.275 5.65027 9.24043 8.26152 9.03711 11H14.9629C14.7596 8.26152 13.725 5.65027 12 3.51562Z" fill="#1A1A1A"/>
</svg>
