<svg width="24" height="24" viewBox="0 0 24 24" fill="none" xmlns="http://www.w3.org/2000/svg">
<path d="M20 5C20 4.44772 19.5523 4 19 4H5C4.44772 4 4 4.44772 4 5V19C4 19.5523 4.44772 20 5 20H19C19.5523 20 20 19.5523 20 19V5ZM22 19C22 20.6569 20.6569 22 19 22H5C3.34315 22 2 20.6569 2 19V5C2 3.34315 3.34315 2 5 2H19C20.6569 2 22 3.34315 22 5V19Z" fill="#1A1A1A"/>
<path d="M10 9C10 8.44772 9.55228 8 9 8C8.44772 8 8 8.44772 8 9C8 9.55228 8.44772 10 9 10C9.55228 10 10 9.55228 10 9ZM12 9C12 10.6569 10.6569 12 9 12C7.34315 12 6 10.6569 6 9C6 7.34315 7.34315 6 9 6C10.6569 6 12 7.34315 12 9Z" fill="#1A1A1A"/>
<path d="M16.5 10.3284C17.2954 10.3284 18.0585 10.644 18.6211 11.2063V11.2073L21.707 14.2932C22.0974 14.6837 22.0975 15.3168 21.707 15.7073C21.3165 16.0976 20.6835 16.0976 20.293 15.7073L17.207 12.6213C17.0195 12.4339 16.7652 12.3284 16.5 12.3284C16.2348 12.3284 15.9805 12.4339 15.793 12.6213L6.70703 21.7073C6.31655 22.0976 5.68346 22.0976 5.29297 21.7073C4.9025 21.3168 4.9026 20.6837 5.29297 20.2932L14.3789 11.2073V11.2063C14.9415 10.644 15.7046 10.3284 16.5 10.3284Z" fill="#1A1A1A"/>
</svg>
