<svg width="24" height="24" viewBox="0 0 24 24" fill="none" xmlns="http://www.w3.org/2000/svg">
<path d="M20.2926 1.29304C20.683 0.90258 21.3161 0.902711 21.7066 1.29304C22.0971 1.68356 22.0971 2.31658 21.7066 2.7071L20.4136 3.99909L22.0142 5.59968C22.3807 5.97354 22.5855 6.47656 22.5855 7.00007C22.5855 7.52358 22.3807 8.02661 22.0142 8.40046L19.9068 10.5069L19.9 10.5147L19.899 10.5137C19.5252 10.88 19.023 11.086 18.4996 11.086C17.9762 11.0859 17.4739 10.8801 17.1002 10.5137L17.0924 10.5069L15.4996 8.91316L12.107 12.3067C11.7165 12.6972 11.0835 12.6972 10.6929 12.3067C10.3026 11.9162 10.3025 11.2831 10.6929 10.8926L20.2926 1.29304ZM16.9136 7.49909L18.4996 9.08503L20.5855 7.00007L18.9996 5.41316L16.9136 7.49909Z" fill="#1A1A1A"/>
<path d="M12 15.5C12 13.0147 9.98528 11 7.5 11C5.01472 11 3 13.0147 3 15.5C3 17.9853 5.01472 20 7.5 20C9.98528 20 12 17.9853 12 15.5ZM14 15.5C14 19.0899 11.0899 22 7.5 22C3.91015 22 1 19.0899 1 15.5C1 11.9101 3.91015 9 7.5 9C11.0899 9 14 11.9101 14 15.5Z" fill="#1A1A1A"/>
</svg>
