<svg width="24" height="24" viewBox="0 0 24 24" fill="none" xmlns="http://www.w3.org/2000/svg">
<path d="M16.9961 1.06639C18.5691 1.08016 20.0742 1.71185 21.1865 2.8242C22.2987 3.93661 22.9297 5.44163 22.9434 7.01463C22.9569 8.58749 22.3524 10.1029 21.2598 11.2344L18.2471 14.2471C17.6388 14.8555 16.9066 15.3263 16.1006 15.6269C15.2946 15.9276 14.4333 16.0507 13.5752 15.9892C12.717 15.9278 11.882 15.683 11.127 15.2705C10.372 14.858 9.71454 14.2875 9.19922 13.5986C8.86859 13.1564 8.95918 12.53 9.40137 12.1992C9.8436 11.8686 10.47 11.9592 10.8008 12.4014C11.1443 12.8605 11.5827 13.2407 12.0859 13.5156C12.5892 13.7905 13.1458 13.9541 13.7178 13.9951C14.2897 14.0361 14.8641 13.9533 15.4014 13.7529C15.9388 13.5524 16.4275 13.2386 16.833 12.833L19.8203 9.84569C20.5489 9.09128 20.9525 8.08002 20.9434 7.03123C20.9341 5.98277 20.5138 4.97976 19.7725 4.23826C19.0309 3.49668 18.0272 3.07555 16.9785 3.06639C15.9298 3.05728 14.9194 3.46085 14.165 4.18944L14.1641 4.18846L12.4551 5.88865C12.0634 6.27804 11.4304 6.27641 11.041 5.88475C10.6517 5.49308 10.6533 4.86006 11.0449 4.47069L12.7646 2.76072C12.768 2.75736 12.772 2.75428 12.7754 2.75096C13.907 1.65801 15.4229 1.05272 16.9961 1.06639Z" fill="#1A1A1A"/>
<path d="M10.4246 8.01049C11.2827 8.07194 12.1179 8.31677 12.8728 8.72924C13.6279 9.14174 14.2852 9.71216 14.8006 10.4011C15.1313 10.8432 15.0413 11.4696 14.5994 11.8005C14.1572 12.1313 13.5299 12.0415 13.199 11.5994C12.8555 11.1401 12.4172 10.7591 11.9139 10.4841C11.4106 10.2092 10.854 10.0456 10.282 10.0046C9.71003 9.96366 9.13574 10.0464 8.59843 10.2468C8.06103 10.4473 7.5723 10.7611 7.16679 11.1667L4.17851 14.154C3.44991 14.9084 3.04733 15.9197 3.05644 16.9685C3.06561 18.0172 3.48673 19.0209 4.22832 19.7624C4.96982 20.5037 5.97283 20.9241 7.02128 20.9333C8.07007 20.9425 9.08133 20.5389 9.83574 19.8103L11.533 18.113C11.9235 17.7225 12.5565 17.7225 12.9471 18.113C13.3375 18.5036 13.3376 19.1366 12.9471 19.5271L11.2244 21.2497C10.0929 22.3424 8.57754 22.9469 7.00468 22.9333C5.43169 22.9197 3.92666 22.2887 2.81425 21.1765C1.7019 20.0641 1.07022 18.5591 1.05644 16.9861C1.04277 15.4129 1.64806 13.897 2.74101 12.7654L2.75273 12.7527L5.75273 9.75267C6.36096 9.14426 7.09316 8.67347 7.89921 8.37279C8.70521 8.07216 9.56656 7.94906 10.4246 8.01049Z" fill="#1A1A1A"/>
</svg>
