<svg width="26" height="27" viewBox="0 0 26 27" fill="none" xmlns="http://www.w3.org/2000/svg">
<g filter="url(#filter0_d_17891_4942)">
<path fill-rule="evenodd" clip-rule="evenodd" d="M13.1078 21.1475C13.9172 21.1475 14.5883 20.9797 14.5883 20.7773C14.5883 20.575 13.9172 20.4122 13.1078 20.4122C12.2985 20.4122 11.6471 20.575 11.6471 20.7773C11.6471 20.9797 12.2985 21.1475 13.1078 21.1475Z" fill="#666666"/>
<path d="M13.1289 3.25024C16.9885 3.41959 19.9854 6.38851 19.9854 10.5266C19.9853 12.5748 19.085 14.0408 17.8135 15.51C17.1815 16.2402 16.4455 16.9852 15.6816 17.7981C14.9141 18.6148 14.1081 19.5113 13.3174 20.5627L13.1172 20.8284L12.918 20.5627C12.1273 19.5113 11.3212 18.6148 10.5537 17.7981C9.7898 16.9852 9.05382 16.2402 8.42188 15.51C7.15036 14.0408 6.25007 12.5748 6.25 10.5266C6.25 6.38849 9.24682 3.41957 13.1064 3.25024H13.1289ZM13.1172 7.91138C11.8992 7.9116 10.9123 8.89941 10.9121 10.1174C10.9121 11.3356 11.8991 12.3233 13.1172 12.3235C14.3355 12.3235 15.3232 11.3357 15.3232 10.1174C15.3231 8.89928 14.3354 7.91138 13.1172 7.91138Z" fill="#00C3FF"/>
<path d="M13.1289 3.25024L13.1399 3.00024H13.1289V3.25024ZM19.9854 10.5266L20.2354 10.5266V10.5266H19.9854ZM17.8135 15.51L18.0025 15.6736L18.0025 15.6736L17.8135 15.51ZM15.6816 17.7981L15.4995 17.6269V17.6269L15.6816 17.7981ZM13.3174 20.5627L13.517 20.7132L13.5172 20.713L13.3174 20.5627ZM13.1172 20.8284L12.9172 20.9784L13.1167 21.2444L13.3168 20.9788L13.1172 20.8284ZM12.918 20.5627L13.118 20.4127L13.1178 20.4125L12.918 20.5627ZM10.5537 17.7981L10.7359 17.6269H10.7359L10.5537 17.7981ZM8.42188 15.51L8.23284 15.6736L8.23284 15.6736L8.42188 15.51ZM6.25 10.5266H6V10.5266L6.25 10.5266ZM13.1064 3.25024V3L13.0955 3.00048L13.1064 3.25024ZM13.1172 7.91138V7.66138H13.1171L13.1172 7.91138ZM10.9121 10.1174L10.6621 10.1174V10.1174H10.9121ZM13.1172 12.3235L13.1171 12.5735H13.1172V12.3235ZM15.3232 10.1174H15.5732V10.1174L15.3232 10.1174ZM13.1289 3.25024L13.1179 3.5C16.845 3.66354 19.7354 6.52344 19.7354 10.5266H19.9854H20.2354C20.2354 6.25359 17.132 3.17565 13.1399 3.00048L13.1289 3.25024ZM19.9854 10.5266L19.7354 10.5266C19.7353 12.4872 18.8794 13.8963 17.6244 15.3464L17.8135 15.51L18.0025 15.6736C19.2905 14.1854 20.2353 12.6624 20.2354 10.5266L19.9854 10.5266ZM17.8135 15.51L17.6244 15.3464C16.9969 16.0715 16.2695 16.8075 15.4995 17.6269L15.6816 17.7981L15.8638 17.9693C16.6216 17.1629 17.3662 16.4089 18.0025 15.6736L17.8135 15.51ZM15.6816 17.7981L15.4995 17.6269C14.7293 18.4464 13.9162 19.3505 13.1176 20.4125L13.3174 20.5627L13.5172 20.713C14.2999 19.6721 15.0989 18.7832 15.8638 17.9693L15.6816 17.7981ZM13.3174 20.5627L13.1177 20.4123L12.9175 20.6779L13.1172 20.8284L13.3168 20.9788L13.517 20.7132L13.3174 20.5627ZM13.1172 20.8284L13.3172 20.6784L13.118 20.4127L12.918 20.5627L12.718 20.7127L12.9172 20.9784L13.1172 20.8284ZM12.918 20.5627L13.1178 20.4125C12.3192 19.3505 11.506 18.4464 10.7359 17.6269L10.5537 17.7981L10.3715 17.9693C11.1364 18.7832 11.9355 19.6722 12.7182 20.713L12.918 20.5627ZM10.5537 17.7981L10.7359 17.6269C9.96587 16.8075 9.23844 16.0715 8.61091 15.3464L8.42188 15.51L8.23284 15.6736C8.8692 16.4089 9.61374 17.1629 10.3715 17.9693L10.5537 17.7981ZM8.42188 15.51L8.61091 15.3464C7.35589 13.8963 6.50006 12.4872 6.5 10.5266L6.25 10.5266L6 10.5266C6.00007 12.6624 6.94484 14.1854 8.23284 15.6736L8.42188 15.51ZM6.25 10.5266H6.5C6.5 6.52342 9.39035 3.66351 13.1174 3.5L13.1064 3.25024L13.0955 3.00048C9.1033 3.17562 6 6.25357 6 10.5266H6.25ZM13.1064 3.25024V3.50024H13.1289V3.25024V3.00024H13.1064V3.25024ZM13.1172 7.91138L13.1171 7.66138C11.761 7.66162 10.6623 8.76146 10.6621 10.1174L10.9121 10.1174L11.1621 10.1175C11.1622 9.03736 12.0374 8.16157 13.1172 8.16138L13.1172 7.91138ZM10.9121 10.1174H10.6621C10.6621 11.4735 11.7609 12.5732 13.1171 12.5735L13.1172 12.3235L13.1172 12.0735C12.0373 12.0733 11.1621 11.1976 11.1621 10.1174H10.9121ZM13.1172 12.3235V12.5735C14.4735 12.5735 15.5732 11.4738 15.5732 10.1174H15.3232H15.0732C15.0732 11.1976 14.1974 12.0735 13.1172 12.0735V12.3235ZM15.3232 10.1174L15.5732 10.1174C15.5731 8.76123 14.4735 7.66138 13.1172 7.66138V7.91138V8.16138C14.1973 8.16138 15.0731 9.03733 15.0732 10.1175L15.3232 10.1174Z" fill="#F5F5F5"/>
</g>
<defs>
<filter id="filter0_d_17891_4942" x="0" y="0" width="22.2354" height="26.2444" filterUnits="userSpaceOnUse" color-interpolation-filters="sRGB">
<feFlood flood-opacity="0" result="BackgroundImageFix"/>
<feColorMatrix in="SourceAlpha" type="matrix" values="0 0 0 0 0 0 0 0 0 0 0 0 0 0 0 0 0 0 127 0" result="hardAlpha"/>
<feOffset dx="-2" dy="1"/>
<feGaussianBlur stdDeviation="2"/>
<feComposite in2="hardAlpha" operator="out"/>
<feColorMatrix type="matrix" values="0 0 0 0 0 0 0 0 0 0 0 0 0 0 0 0 0 0 0.19 0"/>
<feBlend mode="normal" in2="BackgroundImageFix" result="effect1_dropShadow_17891_4942"/>
<feBlend mode="normal" in="SourceGraphic" in2="effect1_dropShadow_17891_4942" result="shape"/>
</filter>
</defs>
</svg>
