<svg width="24" height="24" viewBox="0 0 24 24" fill="none" xmlns="http://www.w3.org/2000/svg">
<path d="M8.99999 2.23608C9.46542 2.23608 9.92446 2.34447 10.3408 2.55249L14.5527 4.65894C14.6915 4.72829 14.8448 4.7644 15 4.7644C15.1549 4.7644 15.3077 4.72806 15.4463 4.65894L19.1055 2.82886H19.1064C19.4115 2.67648 19.7502 2.60439 20.0908 2.61987C20.4314 2.63539 20.7628 2.73729 21.0527 2.91675C21.3426 3.09627 21.5823 3.34727 21.748 3.64526C21.9135 3.94292 22.0002 4.27835 22 4.6189V17.3835L21.9951 17.5222C21.9725 17.8449 21.872 18.158 21.7012 18.4343C21.5058 18.7501 21.2257 19.0047 20.8935 19.1707L20.8945 19.1716L16.3408 21.448V21.449C15.9245 21.657 15.4654 21.7654 15 21.7654C14.5346 21.7654 14.0755 21.657 13.6592 21.449L9.44726 19.3425C9.30846 19.2732 9.15516 19.2371 8.99999 19.2371C8.84491 19.2371 8.69147 19.2723 8.55273 19.3416L4.89452 21.1726H4.89355C4.58834 21.325 4.249 21.3972 3.90819 21.3816C3.56744 21.3659 3.23623 21.2634 2.94628 21.0837C2.6562 20.9039 2.41659 20.6527 2.25097 20.3542C2.08537 20.0559 1.99916 19.7199 1.99999 19.3787V6.61792L2.00487 6.47827C2.02756 6.1557 2.12798 5.84235 2.29882 5.56616C2.49405 5.2506 2.77358 4.9958 3.10546 4.82983L7.65917 2.55249L7.81737 2.47925C8.1905 2.31919 8.59277 2.23608 8.99999 2.23608ZM3.99999 6.6189V19.3835L7.65917 17.5535L7.81737 17.4802C7.87752 17.4544 7.93843 17.4307 7.99999 17.4089V4.61792L3.99999 6.6189ZM9.99999 17.4089C10.1161 17.45 10.23 17.4981 10.3408 17.5535L14 19.3826V6.59155C13.884 6.55051 13.7699 6.50329 13.6592 6.448L9.99999 4.61792V17.4089ZM16.3418 6.44702L16.3408 6.448C16.2301 6.50329 16.116 6.55051 16 6.59155V19.3826L20 17.3826V4.61792L16.3418 6.44702Z" fill="#1A1A1A"/>
</svg>
