<svg width="24" height="24" viewBox="0 0 24 24" fill="none" xmlns="http://www.w3.org/2000/svg">
<path d="M19.0009 6.00049C19.0009 5.20493 18.6845 4.44198 18.122 3.87939C17.5595 3.31687 16.7965 3.00061 16.0009 3.00049C15.2053 3.00049 14.4415 3.31677 13.8789 3.87939L5.5068 12.4233C5.50266 12.4276 5.49832 12.4319 5.49411 12.436C5.0238 12.8988 4.64979 13.4501 4.39352 14.0581C4.13722 14.6663 4.00363 15.32 4.00094 15.98C3.99828 16.6399 4.12664 17.2936 4.3779 17.9038C4.62924 18.5141 4.99907 19.0689 5.46579 19.5356C5.93241 20.0022 6.4865 20.3722 7.09665 20.6235C7.70695 20.8749 8.36142 21.0032 9.02145 21.0005C9.68135 20.9978 10.3342 20.8641 10.9423 20.6079C11.5506 20.3516 12.1025 19.9768 12.5654 19.5063L20.9423 10.9575C21.3288 10.5631 21.9619 10.5566 22.3564 10.9429C22.7509 11.3294 22.7576 11.9625 22.3711 12.3569L13.9922 20.9077L13.9912 20.9097C13.3431 21.5684 12.5703 22.0919 11.7187 22.4507C10.8673 22.8094 9.95318 22.9967 9.02926 23.0005C8.10528 23.0042 7.1893 22.825 6.33493 22.4731C5.48058 22.1213 4.7041 21.6031 4.05075 20.9497C3.39749 20.2964 2.88011 19.5198 2.52829 18.6655C2.17647 17.8112 1.99718 16.8952 2.00094 15.9712C2.00476 15.0473 2.19198 14.1331 2.55075 13.2817C2.90957 12.4303 3.43314 11.6582 4.09176 11.0103L12.458 2.47217L12.4648 2.46533C13.4025 1.52763 14.6748 1.00049 16.0009 1.00049C17.3269 1.00061 18.5985 1.52774 19.5361 2.46533C20.4737 3.40299 21.0009 4.6745 21.0009 6.00049C21.0009 7.3266 20.4738 8.59892 19.5361 9.53662L19.5351 9.53564L11.1289 18.1147L11.122 18.1226C10.5595 18.685 9.79644 19.0013 9.00094 19.0015C8.20527 19.0015 7.44154 18.6851 6.87887 18.1226C6.31619 17.5599 5.99997 16.7962 5.99997 16.0005C5.99999 15.2081 6.31378 14.4482 6.87204 13.8862L15.2861 5.30029C15.6727 4.90594 16.3057 4.89913 16.7002 5.28564C17.0946 5.6722 17.1004 6.30526 16.7138 6.69971L8.29977 15.2856L8.29294 15.2935C8.10548 15.481 7.99999 15.7353 7.99997 16.0005C7.99997 16.2657 8.10552 16.5199 8.29294 16.7075C8.48055 16.8951 8.73562 17.0015 9.00094 17.0015C9.2329 17.0014 9.45684 16.9206 9.63473 16.7749L9.70797 16.7075L18.1152 8.12939L18.122 8.12158C18.6845 7.55898 19.0009 6.79604 19.0009 6.00049Z" fill="#1A1A1A"/>
</svg>
