<svg width="24" height="24" viewBox="0 0 24 24" fill="none" xmlns="http://www.w3.org/2000/svg">
<path d="M21.0001 4.81885C21.0001 4.33645 20.8079 3.87386 20.4669 3.53271C20.1259 3.19172 19.6639 2.9997 19.1817 2.99951C18.6995 2.99945 18.2367 3.19096 17.8956 3.53174L16.421 5.00635L18.9932 7.57861L20.4669 6.10498L20.588 5.97119C20.8531 5.64764 21 5.24081 21.0001 4.81885ZM4.54793 16.8823C4.43195 16.998 4.34595 17.1407 4.29793 17.2974L3.2491 20.7485L6.70613 19.7007L6.82039 19.6587C6.93206 19.6092 7.03416 19.5394 7.12117 19.4526L17.5792 8.99268L15.0069 6.42041L4.54793 16.8823ZM23.0001 4.81885C23 5.76845 22.6463 6.68185 22.0118 7.38232L21.8809 7.51904L19.793 9.60596C19.7665 9.64058 19.7388 9.67485 19.7071 9.70654C19.6752 9.73848 19.6405 9.76674 19.6055 9.79346L8.53328 20.8687C8.18557 21.2153 7.75787 21.4719 7.28816 21.6147L2.93465 22.9351L2.93172 22.936C2.6726 23.0139 2.39723 23.0195 2.13484 22.9536C1.87239 22.8876 1.63208 22.7522 1.4405 22.561C1.24888 22.3697 1.11242 22.1292 1.04597 21.8667C0.979661 21.6044 0.98517 21.3291 1.06258 21.0698L1.06453 21.0659L2.38484 16.7134L2.38582 16.7104C2.53 16.2403 2.78761 15.8125 3.13582 15.4653L14.2091 4.38916C14.2348 4.35587 14.2625 4.32303 14.293 4.29248C14.3238 4.26172 14.3562 4.23343 14.3897 4.20752L16.4805 2.11768C17.1968 1.40159 18.1689 0.999385 19.1817 0.999512C20.1945 0.999699 21.1659 1.40244 21.8819 2.11865C22.5978 2.83489 23.0002 3.80614 23.0001 4.81885Z" fill="#1A1A1A"/>
</svg>
