<svg width="24" height="24" viewBox="0 0 24 24" fill="none" xmlns="http://www.w3.org/2000/svg">
<path d="M7 3V8H17V3H7ZM19 8H20C20.7957 8 21.5585 8.3163 22.1211 8.87891C22.6837 9.44151 23 10.2043 23 11V16C23 16.7957 22.6837 17.5585 22.1211 18.1211C21.5585 18.6837 20.7957 19 20 19H18C17.4477 19 17 18.5523 17 18C17 17.4477 17.4477 17 18 17H20C20.2652 17 20.5195 16.8946 20.707 16.707C20.8946 16.5195 21 16.2652 21 16V11C21 10.7348 20.8946 10.4805 20.707 10.293C20.5195 10.1054 20.2652 10 20 10H4C3.73478 10 3.48051 10.1054 3.29297 10.293C3.10543 10.4805 3 10.7348 3 11V16C3 16.2652 3.10543 16.5195 3.29297 16.707C3.48051 16.8946 3.73478 17 4 17H6C6.55228 17 7 17.4477 7 18C7 18.5523 6.55228 19 6 19H4C3.20435 19 2.44152 18.6837 1.87891 18.1211C1.3163 17.5585 1 16.7956 1 16V11C1 10.2044 1.3163 9.44151 1.87891 8.87891C2.44151 8.3163 3.20435 8 4 8H5V3C5 2.46957 5.21087 1.96101 5.58594 1.58594C5.96101 1.21086 6.46957 1 7 1H17C17.5304 1 18.039 1.21086 18.4141 1.58594C18.7891 1.96101 19 2.46957 19 3V8Z" fill="#1A1A1A"/>
<path d="M7 15V21H17V15H7ZM19 21C19 22.1046 18.1046 23 17 23H7C5.89543 23 5 22.1046 5 21V15C5 13.8954 5.89543 13 7 13H17C18.1046 13 19 13.8954 19 15V21Z" fill="#1A1A1A"/>
</svg>
