<svg width="24" height="24" viewBox="0 0 24 24" fill="none" xmlns="http://www.w3.org/2000/svg">
<path d="M16.293 1.29289C16.6835 0.902369 17.3165 0.902369 17.707 1.29289L21.707 5.29289C22.0975 5.68342 22.0975 6.31643 21.707 6.70696L17.707 10.707C17.3165 11.0975 16.6835 11.0975 16.293 10.707C15.9024 10.3164 15.9024 9.68342 16.293 9.29289L19.5859 5.99992L16.293 2.70696C15.9024 2.31643 15.9024 1.68342 16.293 1.29289Z" fill="#1A1A1A"/>
<path d="M6.29297 13.293C6.68349 12.9024 7.31651 12.9024 7.70703 13.293C8.09756 13.6835 8.09756 14.3165 7.70703 14.707L4.41406 18L7.70703 21.293C8.09756 21.6835 8.09756 22.3165 7.70703 22.707C7.31651 23.0976 6.68349 23.0976 6.29297 22.707L2.29297 18.707C1.90244 18.3165 1.90244 17.6835 2.29297 17.293L6.29297 13.293ZM2 11V10C2 8.67392 2.52716 7.40253 3.46484 6.46484C4.40253 5.52716 5.67392 5 7 5H21C21.5523 5 22 5.44772 22 6C22 6.55228 21.5523 7 21 7H7C6.20435 7 5.44152 7.3163 4.87891 7.87891C4.3163 8.44152 4 9.20435 4 10V11C4 11.5523 3.55228 12 3 12C2.44772 12 2 11.5523 2 11Z" fill="#1A1A1A"/>
<path d="M20 14V13C20 12.4477 20.4477 12 21 12C21.5523 12 22 12.4477 22 13V14C22 15.3261 21.4728 16.5975 20.5352 17.5352C19.5975 18.4728 18.3261 19 17 19H3C2.44772 19 2 18.5523 2 18C2 17.4477 2.44772 17 3 17H17C17.7956 17 18.5585 16.6837 19.1211 16.1211C19.6837 15.5585 20 14.7956 20 14Z" fill="#1A1A1A"/>
</svg>
