<svg width="24" height="24" viewBox="0 0 24 24" fill="none" xmlns="http://www.w3.org/2000/svg">
<path d="M8 6C8 4.89543 7.10457 4 6 4C4.89543 4 4 4.89543 4 6C4 7.10457 4.89543 8 6 8C7.10457 8 8 7.10457 8 6ZM10 6C10 8.20914 8.20914 10 6 10C3.79086 10 2 8.20914 2 6C2 3.79086 3.79086 2 6 2C8.20914 2 10 3.79086 10 6Z" fill="#1A1A1A"/>
<path d="M19.2928 3.29286C19.6834 2.90236 20.3164 2.9024 20.7069 3.29286C21.0974 3.68339 21.0974 4.3164 20.7069 4.70693L8.82703 16.5868C8.4365 16.9773 7.80349 16.9773 7.41297 16.5868C7.0225 16.1963 7.02246 15.5633 7.41297 15.1727L10.5858 11.9999L7.41297 8.82704C7.02246 8.43654 7.0225 7.80351 7.41297 7.41298C7.80349 7.02246 8.4365 7.02246 8.82703 7.41298L11.9999 10.5858L19.2928 3.29286Z" fill="#1A1A1A"/>
<path d="M8 18C8 16.8954 7.10457 16 6 16C4.89543 16 4 16.8954 4 18C4 19.1046 4.89543 20 6 20C7.10457 20 8 19.1046 8 18ZM10 18C10 20.2091 8.20914 22 6 22C3.79086 22 2 20.2091 2 18C2 15.7909 3.79086 14 6 14C8.20914 14 10 15.7909 10 18Z" fill="#1A1A1A"/>
<path d="M14.093 14.0929C14.4835 13.7024 15.1165 13.7024 15.507 14.0929L20.7072 19.2931C21.0976 19.6837 21.0977 20.3167 20.7072 20.7072C20.3168 21.0977 19.6837 21.0975 19.2932 20.7072L14.093 15.507C13.7024 15.1165 13.7024 14.4835 14.093 14.0929Z" fill="#1A1A1A"/>
</svg>
