<svg width="24" height="24" viewBox="0 0 24 24" fill="none" xmlns="http://www.w3.org/2000/svg">
<path d="M15.3881 15.3884C15.7787 14.9978 16.4117 14.9978 16.8022 15.3884L21.3735 19.9596C21.764 20.3502 21.764 20.9832 21.3735 21.3737C20.983 21.7642 20.35 21.7642 19.9594 21.3737L15.3881 16.8024C14.9976 16.4119 14.9976 15.7789 15.3881 15.3884Z" fill="#1A1A1A"/>
<path d="M16.2377 10.3811C16.2377 7.14639 13.6159 4.52383 10.3812 4.52368C7.1464 4.52368 4.52379 7.14629 4.52379 10.3811C4.52394 13.6158 7.14649 16.2375 10.3812 16.2375C13.6158 16.2374 16.2375 13.6157 16.2377 10.3811ZM18.2377 10.3811C18.2375 14.7203 14.7204 18.2374 10.3812 18.2375C6.04192 18.2375 2.52394 14.7204 2.52379 10.3811C2.52379 6.04172 6.04183 2.52368 10.3812 2.52368C14.7205 2.52383 18.2377 6.04182 18.2377 10.3811Z" fill="#1A1A1A"/>
</svg>
