<svg width="24" height="24" viewBox="0 0 24 24" fill="none" xmlns="http://www.w3.org/2000/svg">
<path d="M21.0139 1.08156C21.2434 1.0015 21.4883 0.978364 21.7278 1.01418L21.8323 1.03371L21.9348 1.06008C22.1383 1.12086 22.3262 1.22466 22.4866 1.36379L22.5647 1.43605L22.637 1.5132C22.776 1.67346 22.8789 1.86172 22.9397 2.06496L22.967 2.16848L22.9866 2.27297C23.0222 2.51186 22.9979 2.75594 22.9182 2.98488L22.9192 2.98586L16.4192 21.9859V21.9868C16.3199 22.2762 16.1345 22.5285 15.8879 22.7095C15.6412 22.8905 15.3443 22.9917 15.0383 22.9995C14.7326 23.0073 14.4316 22.9215 14.176 22.7534C13.9203 22.5852 13.7216 22.3422 13.6077 22.0581L10.428 14.1275L10.386 14.0357C10.3391 13.9465 10.2788 13.8649 10.2073 13.7935C10.1117 13.6981 9.99763 13.623 9.87232 13.5728V13.5718L1.94166 10.3921C1.65776 10.2782 1.41549 10.0802 1.24732 9.82473C1.07913 9.56902 0.993389 9.26741 1.00123 8.96144C1.0091 8.65555 1.11024 8.35952 1.29126 8.11281L1.36158 8.02297C1.53513 7.82071 1.76052 7.66846 2.01392 7.58156V7.58059L21.0139 1.08059V1.08156ZM12.2063 13.2056C12.2338 13.263 12.2596 13.3212 12.2835 13.3804L12.2844 13.3823L14.9622 20.063L19.9602 5.45266L12.2063 13.2056ZM3.9358 9.03664L10.6145 11.7154H10.6155C10.675 11.7392 10.7336 11.766 10.7913 11.7935L18.5471 4.03762L3.9358 9.03664Z" fill="#1A1A1A"/>
</svg>
