<svg width="24" height="24" viewBox="0 0 24 24" fill="none" xmlns="http://www.w3.org/2000/svg">
<path d="M17.9831 11.9998C17.9831 11.4634 18.1126 10.9346 18.36 10.4587C18.6075 9.98286 18.9659 9.57346 19.405 9.26538C19.6711 9.07172 19.8569 8.78656 19.9265 8.4646C19.9967 8.13946 19.9433 7.79953 19.777 7.51147C19.6107 7.22351 19.3427 7.0077 19.0261 6.90601C18.7092 6.80438 18.3652 6.82411 18.0622 6.96167C17.5783 7.1853 17.0479 7.2896 16.5153 7.26636C15.9794 7.24293 15.4566 7.09106 14.9919 6.823C14.5272 6.55491 14.134 6.17853 13.8454 5.72632C13.5569 5.27406 13.381 4.75872 13.3337 4.22437V4.22339C13.3006 3.89417 13.1469 3.5887 12.902 3.36597C12.6554 3.14168 12.334 3.01738 12.0007 3.01733C11.6673 3.01733 11.346 3.14175 11.0993 3.36597C10.8527 3.59024 10.6983 3.89841 10.6667 4.23022C10.6635 4.26358 10.6583 4.29665 10.652 4.32886C10.5922 4.82567 10.4236 5.30369 10.154 5.72632C9.86544 6.17859 9.47219 6.55488 9.00751 6.823C8.54279 7.09113 8.02009 7.24291 7.48407 7.26636C6.94802 7.28979 6.41381 7.18434 5.92743 6.95776V6.95679C5.62713 6.82401 5.28813 6.80643 4.97528 6.90698C4.65886 7.00872 4.39158 7.22467 4.22528 7.51245C4.059 7.8004 4.00581 8.14053 4.07587 8.46558C4.14601 8.79042 4.3342 9.07746 4.60419 9.27124H4.60321C5.03864 9.57868 5.39439 9.98574 5.64032 10.4587C5.88773 10.9346 6.01727 11.4634 6.01727 11.9998C6.01722 12.5359 5.88761 13.0641 5.64032 13.5398C5.39429 14.013 5.0379 14.4198 4.60224 14.7273L4.60321 14.7283C4.33297 14.922 4.1442 15.209 4.07392 15.5339C4.00368 15.8592 4.05687 16.1999 4.22333 16.488C4.38981 16.776 4.65757 16.9919 4.97431 17.0935C5.29099 17.1951 5.63433 17.1752 5.9372 17.0378C6.42129 16.8138 6.95202 16.709 7.48505 16.7322C8.02116 16.7555 8.54363 16.9075 9.00849 17.1755C9.47339 17.4437 9.8673 17.8198 10.1559 18.2722C10.4434 18.7228 10.6177 19.2361 10.6657 19.7683H10.6667C10.6983 20.1002 10.8526 20.4082 11.0993 20.6326C11.346 20.8569 11.6673 20.9812 12.0007 20.9812C12.3341 20.9812 12.6554 20.8569 12.902 20.6326C13.1487 20.4082 13.3031 20.1002 13.3347 19.7683C13.3828 19.2362 13.5581 18.7237 13.8454 18.2732C14.134 17.8209 14.5272 17.4447 14.9919 17.1765C15.4566 16.9084 15.9793 16.7556 16.5153 16.7322C17.048 16.7089 17.5783 16.8141 18.0622 17.0378L18.1774 17.0837C18.4505 17.1784 18.7487 17.1825 19.0261 17.0935C19.3427 16.9919 19.6106 16.776 19.777 16.488C19.9435 16.1999 19.9967 15.8592 19.9265 15.5339C19.8562 15.209 19.6673 14.922 19.3972 14.7283V14.7273C18.9617 14.4198 18.606 14.0128 18.36 13.5398C18.1127 13.064 17.9832 12.536 17.9831 11.9998ZM19.9831 11.9998C19.9832 12.2148 20.0352 12.4271 20.1345 12.6179C20.2088 12.7609 20.3082 12.8887 20.4274 12.9958L20.5534 13.0964L20.5612 13.1023C21.2354 13.5853 21.7065 14.3014 21.8815 15.1121C22.0566 15.9228 21.9234 16.7699 21.5085 17.488C21.0936 18.2062 20.4262 18.7445 19.6364 18.9978C18.8467 19.2511 17.9912 19.2009 17.236 18.8582L17.2263 18.8542C17.0312 18.7635 16.8171 18.7208 16.6022 18.7302C16.3872 18.7396 16.1773 18.8004 15.9909 18.908C15.8045 19.0155 15.6467 19.1669 15.5309 19.3484C15.4152 19.5298 15.3448 19.7366 15.3259 19.9509V19.9578C15.2472 20.785 14.8624 21.5529 14.2477 22.1121C13.6329 22.6712 12.8317 22.9812 12.0007 22.9812C11.1696 22.9812 10.3685 22.6712 9.7536 22.1121C9.13881 21.5529 8.75417 20.7851 8.67548 19.9578L8.6745 19.9509C8.65558 19.7365 8.58518 19.5299 8.46942 19.3484C8.35362 19.1668 8.196 19.0156 8.00946 18.908C7.82294 18.8004 7.61325 18.7396 7.39813 18.7302C7.18313 18.7209 6.96917 18.7633 6.77411 18.8542L6.76435 18.8582C6.00924 19.201 5.15364 19.251 4.36395 18.9978C3.57421 18.7445 2.9068 18.2062 2.49188 17.488C2.07697 16.7699 1.94378 15.9228 2.11884 15.1121C2.29393 14.3014 2.76493 13.5852 3.43915 13.1023L3.44696 13.0964C3.62296 12.9729 3.76667 12.8087 3.86591 12.6179C3.96513 12.4271 4.01722 12.2148 4.01727 11.9998C4.01727 11.7847 3.96508 11.5724 3.86591 11.3816C3.76664 11.1907 3.6231 11.0257 3.44696 10.9021L3.43817 10.8962C2.76484 10.413 2.29543 9.69666 2.12079 8.88647C1.94617 8.0763 2.0784 7.23015 2.49286 6.51245C2.90733 5.79474 3.57397 5.25638 4.36298 5.00269C5.05317 4.7808 5.79415 4.79057 6.47431 5.02515L6.76239 5.1394L6.77216 5.14429C6.96716 5.23513 7.18126 5.27764 7.39618 5.26831C7.61114 5.25891 7.82112 5.19806 8.00751 5.09058C8.19397 4.98299 8.3517 4.83163 8.46747 4.65015C8.58322 4.46867 8.65359 4.26202 8.67255 4.04761C8.67623 4.00605 8.6826 3.96532 8.6911 3.92554C8.79324 3.14258 9.1676 2.41942 9.7536 1.88647C10.3684 1.32736 11.1696 1.01733 12.0007 1.01733C12.8317 1.01738 13.6329 1.32733 14.2477 1.88647C14.7857 2.37577 15.1473 3.02514 15.2819 3.73413L15.3259 4.04175V4.04761C15.3448 4.26191 15.4153 4.46874 15.5309 4.65015C15.6467 4.83158 15.8045 4.983 15.9909 5.09058C16.1773 5.19813 16.3872 5.25889 16.6022 5.26831C16.8172 5.27771 17.0312 5.23508 17.2263 5.14429L17.236 5.14038C17.9911 4.79766 18.8468 4.74751 19.6364 5.00073C20.4261 5.25402 21.0936 5.7924 21.5085 6.5105C21.9234 7.22863 22.0565 8.07579 21.8815 8.88647C21.7065 9.69721 21.2355 10.4142 20.5612 10.8972L20.5534 10.9021C20.3772 11.0257 20.2337 11.1907 20.1345 11.3816C20.0352 11.5725 19.9831 11.7846 19.9831 11.9998Z" fill="#1A1A1A"/>
<path d="M14 12C14 10.8954 13.1046 10 12 10C10.8954 10 10 10.8954 10 12C10 13.1046 10.8954 14 12 14C13.1046 14 14 13.1046 14 12ZM16 12C16 14.2091 14.2091 16 12 16C9.79086 16 8 14.2091 8 12C8 9.79086 9.79086 8 12 8C14.2091 8 16 9.79086 16 12Z" fill="#1A1A1A"/>
</svg>
