<svg width="24" height="24" viewBox="0 0 24 24" fill="none" xmlns="http://www.w3.org/2000/svg">
<path d="M6 21C6 19.8954 6.89543 19 8 19C9.10457 19 10 19.8954 10 21C10 22.1046 9.10457 23 8 23C6.89543 23 6 22.1046 6 21Z" fill="#1A1A1A"/>
<path d="M17 21C17 19.8954 17.8954 19 19 19C20.1046 19 21 19.8954 21 21C21 22.1046 20.1046 23 19 23C17.8954 23 17 22.1046 17 21Z" fill="#1A1A1A"/>
<path d="M4.04999 1.05005C4.52157 1.05005 4.92877 1.37994 5.02753 1.84106L5.92889 6.05005H22.09C22.3933 6.05006 22.6805 6.18751 22.8703 6.42407C23.0601 6.66062 23.1323 6.9708 23.0666 7.26685L21.4162 14.6965L21.4152 14.6956C21.2683 15.362 20.8999 15.959 20.3683 16.387C19.8365 16.8151 19.1742 17.0489 18.4914 17.05H8.71014V17.0491C8.02022 17.0593 7.34763 16.8326 6.80585 16.4045C6.25834 15.972 5.879 15.3621 5.7326 14.6799L4.14862 7.28735C4.14352 7.26642 4.1387 7.24531 4.13495 7.22388L3.24139 3.05005H2.04999C1.4977 3.05005 1.04999 2.60233 1.04999 2.05005C1.04999 1.49776 1.4977 1.05005 2.04999 1.05005H4.04999ZM7.68768 14.26C7.73647 14.4874 7.86356 14.691 8.04608 14.8352C8.22854 14.9792 8.45528 15.0552 8.68768 15.05H18.4885C18.7158 15.0497 18.9363 14.9718 19.1135 14.8293C19.2907 14.6866 19.4141 14.4872 19.4631 14.2649L19.4641 14.2629L20.843 8.05005H6.3576L7.68768 14.26Z" fill="#1A1A1A"/>
</svg>
