<svg width="24" height="24" viewBox="0 0 24 24" fill="none" xmlns="http://www.w3.org/2000/svg">
<path d="M7.00049 9.99976C7.00059 9.44755 7.44826 8.99976 8.00049 8.99976C8.5525 9 9.00039 9.44771 9.00049 9.99976C9.00049 10.7952 9.31603 11.5583 9.87842 12.1208C10.441 12.6835 11.2048 12.9998 12.0005 12.9998C12.796 12.9996 13.5591 12.6833 14.1216 12.1208C14.684 11.5583 15.0005 10.7953 15.0005 9.99976C15.0006 9.44755 15.4483 8.99976 16.0005 8.99976C16.5525 9 17.0004 9.44771 17.0005 9.99976C17.0005 11.3258 16.4733 12.5982 15.5356 13.5359C14.5981 14.4734 13.3263 14.9996 12.0005 14.9998C10.6745 14.9998 9.40202 14.4735 8.46436 13.5359C7.52667 12.5982 7.00049 11.3258 7.00049 9.99976ZM20.897 5.03394C21.4493 5.03394 21.897 5.48165 21.897 6.03394C21.897 6.58622 21.4493 7.03394 20.897 7.03394H3.10303C2.55074 7.03394 2.10303 6.58622 2.10303 6.03394C2.10303 5.48165 2.55074 5.03394 3.10303 5.03394H20.897Z" fill="#1A1A1A"/>
<path d="M20 6.66699C20 6.45069 19.9296 6.24045 19.7998 6.06738L17.7998 3.40039C17.7067 3.2762 17.5861 3.1749 17.4473 3.10547C17.3084 3.03604 17.1552 3 17 3H7C6.84476 3 6.69159 3.03604 6.55273 3.10547C6.41388 3.1749 6.29334 3.27619 6.2002 3.40039L4.2002 6.06738C4.07045 6.24045 4 6.45069 4 6.66699V20C4 20.2652 4.10543 20.5195 4.29297 20.707C4.48051 20.8946 4.73478 21 5 21H19C19.2652 21 19.5195 20.8946 19.707 20.707C19.8946 20.5195 20 20.2652 20 20V6.66699ZM22 20C22 20.7957 21.6837 21.5585 21.1211 22.1211C20.5585 22.6837 19.7957 23 19 23H5C4.20435 23 3.44152 22.6837 2.87891 22.1211C2.3163 21.5585 2 20.7957 2 20V6.66699C2 6.01801 2.21029 5.38642 2.59961 4.86719L4.59961 2.2002C4.87905 1.82761 5.24164 1.52469 5.6582 1.31641C6.07477 1.10812 6.53427 1 7 1H17C17.4657 1 17.9252 1.10812 18.3418 1.31641C18.7584 1.52469 19.1209 1.82761 19.4004 2.2002L21.4004 4.86719C21.7897 5.38642 22 6.01801 22 6.66699V20Z" fill="#1A1A1A"/>
</svg>
