<svg width="24" height="24" viewBox="0 0 24 24" fill="none" xmlns="http://www.w3.org/2000/svg">
<path d="M21 12C21 7.02944 16.9706 3 12 3C7.02944 3 3 7.02944 3 12C3 16.9706 7.02944 21 12 21C16.9706 21 21 16.9706 21 12ZM23 12C23 18.0751 18.0751 23 12 23C5.92487 23 1 18.0751 1 12C1 5.92487 5.92487 1 12 1C18.0751 1 23 5.92487 23 12Z" fill="#1A1A1A"/>
<path d="M15.2011 13.3975C15.5329 12.9576 16.1585 12.8695 16.5996 13.2002C17.0413 13.5315 17.131 14.1578 16.7998 14.5996L16 14C16.7839 14.5879 16.7997 14.6 16.7998 14.6006L16.7978 14.6025C16.797 14.6036 16.7959 14.6051 16.7949 14.6064C16.7929 14.6091 16.7908 14.6126 16.788 14.6162C16.7825 14.6234 16.7751 14.6327 16.7666 14.6436C16.7493 14.6653 16.7255 14.6937 16.6963 14.7285C16.6376 14.7984 16.5547 14.8938 16.4482 15.0049C16.2361 15.2261 15.926 15.5172 15.5254 15.8086C14.7274 16.3889 13.5254 17 12 17C10.4745 17 9.27251 16.3889 8.47457 15.8086C8.07392 15.5172 7.76379 15.2261 7.55172 15.0049C7.44527 14.8938 7.36232 14.7984 7.30367 14.7285C7.27442 14.6937 7.25058 14.6653 7.23336 14.6436C7.22477 14.6327 7.21744 14.6234 7.21188 14.6162C7.20911 14.6126 7.20705 14.6091 7.20504 14.6064C7.20403 14.6051 7.20293 14.6036 7.20211 14.6025L7.20016 14.6006C7.20023 14.6 7.21602 14.588 7.99996 14L7.20016 14.5996C6.86892 14.1578 6.95858 13.5315 7.40035 13.2002C7.84186 12.8692 8.46728 12.9584 8.79879 13.3994H8.79977L8.79879 13.3975C8.79955 13.3984 8.80047 13.3998 8.80172 13.4014C8.80767 13.4089 8.81838 13.4236 8.83492 13.4434C8.86802 13.4828 8.92204 13.5439 8.99508 13.6201C9.14236 13.7738 9.3638 13.983 9.65035 14.1914C10.2274 14.6111 11.0255 15 12 15C12.9744 15 13.7725 14.6111 14.3496 14.1914C14.6361 13.983 14.8576 13.7738 15.0048 13.6201C15.0779 13.5439 15.1319 13.4828 15.165 13.4434C15.1815 13.4236 15.1923 13.4089 15.1982 13.4014C15.1997 13.3994 15.2003 13.3975 15.2011 13.3965V13.3975ZM9.00973 8C9.56201 8 10.0097 8.44772 10.0097 9C10.0097 9.55228 9.56201 10 9.00973 10H8.99996C8.44768 10 7.99996 9.55228 7.99996 9C7.99996 8.44772 8.44768 8 8.99996 8H9.00973ZM15.0097 8C15.562 8 16.0097 8.44772 16.0097 9C16.0097 9.55228 15.562 10 15.0097 10H15C14.4477 10 14 9.55228 14 9C14 8.44772 14.4477 8 15 8H15.0097Z" fill="#1A1A1A"/>
</svg>
