<svg width="24" height="24" viewBox="0 0 24 24" fill="none" xmlns="http://www.w3.org/2000/svg">
<path d="M16.293 7.29289C16.6835 6.90237 17.3165 6.90237 17.707 7.29289L21.707 11.2929C22.0976 11.6834 22.0976 12.3164 21.707 12.707L17.707 16.707C17.3165 17.0975 16.6835 17.0975 16.293 16.707C15.9024 16.3164 15.9024 15.6834 16.293 15.2929L18.5859 12.9999H10C9.44772 12.9999 9 12.5522 9 11.9999C9 11.4476 9.44772 10.9999 10 10.9999H18.5859L16.293 8.70696C15.9024 8.31643 15.9024 7.68342 16.293 7.29289Z" fill="#1A1A1A"/>
<path d="M20 6.34375V5C20 4.73478 19.8946 4.48051 19.707 4.29297C19.5195 4.10543 19.2652 4 19 4H5C4.73478 4 4.4805 4.10543 4.29297 4.29297C4.10543 4.4805 4 4.73478 4 5V19C4 19.2652 4.10543 19.5195 4.29297 19.707C4.48051 19.8946 4.73478 20 5 20H19C19.2652 20 19.5195 19.8946 19.707 19.707C19.8946 19.5195 20 19.2652 20 19V17.6562C20 17.104 20.4477 16.6562 21 16.6562C21.5523 16.6562 22 17.104 22 17.6562V19C22 19.7957 21.6837 20.5585 21.1211 21.1211C20.5585 21.6837 19.7957 22 19 22H5C4.20435 22 3.44152 21.6837 2.87891 21.1211C2.3163 20.5585 2 19.7957 2 19V5C2 4.20435 2.3163 3.44152 2.87891 2.87891C3.44152 2.3163 4.20435 2 5 2H19C19.7957 2 20.5585 2.3163 21.1211 2.87891C21.6837 3.44152 22 4.20435 22 5V6.34375C22 6.89603 21.5523 7.34375 21 7.34375C20.4477 7.34375 20 6.89603 20 6.34375Z" fill="#1A1A1A"/>
</svg>
