<svg width="24" height="24" viewBox="0 0 24 24" fill="none" xmlns="http://www.w3.org/2000/svg">
<path d="M2.25012 5.08433V11.5762C2.25012 12.3144 2.54113 13.0222 3.06233 13.5433L10.7066 21.1858C11.7925 22.2714 13.5515 22.2714 14.6374 21.1858L20.4357 15.3888C21.5216 14.3032 21.5216 12.5445 20.4357 11.4589L12.7914 3.81636C12.2702 3.29528 11.5623 3.00434 10.8239 3.00434L4.33493 3C3.18394 3 2.25012 3.93361 2.25012 5.08433ZM7.11468 6.47389C7.4833 6.47389 7.83681 6.62029 8.09747 6.88088C8.35812 7.14147 8.50455 7.49491 8.50455 7.86344C8.50455 8.23198 8.35812 8.58542 8.09747 8.84601C7.83681 9.1066 7.4833 9.253 7.11468 9.253C6.74606 9.253 6.39254 9.1066 6.13189 8.84601C5.87124 8.58542 5.7248 8.23198 5.7248 7.86344C5.7248 7.49491 5.87124 7.14147 6.13189 6.88088C6.39254 6.62029 6.74606 6.47389 7.11468 6.47389Z" fill="#1A1A1A"/>
</svg>
