<svg width="24" height="24" viewBox="0 0 24 24" fill="none" xmlns="http://www.w3.org/2000/svg">
<path d="M21.0001 4C21.0001 3.7348 20.8946 3.4805 20.7071 3.29297C20.5196 3.10545 20.2653 3.00002 20.0001 3H18.0001V13H20.0001C20.2653 13 20.5196 12.8945 20.7071 12.707C20.8946 12.5195 21.0001 12.2652 21.0001 12V4ZM6.50008 3C6.28379 3 6.07353 3.07047 5.90047 3.2002C5.77069 3.29753 5.66693 3.42436 5.59773 3.56934L5.54012 3.71973L3.21004 11.7197C3.16658 11.8687 3.15885 12.026 3.1866 12.1787C3.21436 12.3314 3.27711 12.4754 3.3702 12.5996C3.46334 12.7238 3.58388 12.8251 3.72273 12.8945C3.86159 12.964 4.01475 13 4.17 13H10.0001C10.3068 13 10.5966 13.1407 10.7862 13.3818C10.9758 13.6229 11.0441 13.9383 10.9718 14.2363L9.97176 18.3555L9.97078 18.3594C9.89385 18.671 9.88886 18.9965 9.95516 19.3105C10.0215 19.6243 10.1575 19.9191 10.3536 20.1729C10.5498 20.4266 10.8009 20.6332 11.088 20.7764C11.1971 20.8308 11.3117 20.8724 11.4278 20.9072L14.5557 14.6621C14.8041 14.1635 15.1868 13.7438 15.6602 13.4502C15.7698 13.3823 15.8835 13.3225 16.0001 13.2695V3H6.50008ZM23.0001 12C23.0001 12.7956 22.6838 13.5585 22.1212 14.1211C21.5586 14.6837 20.7957 15 20.0001 15H17.2403C17.0543 15.0001 16.872 15.0524 16.7139 15.1504C16.556 15.2484 16.4285 15.3883 16.3458 15.5547L16.3438 15.5576L12.8946 22.4473C12.7231 22.7898 12.3704 23.0047 11.9874 23C11.3653 22.9923 10.7531 22.8439 10.1964 22.5664C9.63947 22.2888 9.1522 21.8888 8.77156 21.3965C8.39099 20.9043 8.12669 20.3324 7.99813 19.7236C7.86958 19.1148 7.88022 18.484 8.02938 17.8799L8.72859 15H4.17C3.70427 15 3.24477 14.8919 2.8282 14.6836C2.41164 14.4753 2.04905 14.1724 1.76961 13.7998C1.4904 13.4274 1.30217 12.995 1.21883 12.5371C1.13552 12.0789 1.15974 11.6072 1.29012 11.1602L3.6202 3.16016L3.69734 2.92969C3.89876 2.40226 4.24599 1.94032 4.70027 1.59961C5.21949 1.21032 5.85112 1 6.50008 1H20.0001C20.7957 1.00002 21.5586 1.31632 22.1212 1.87891C22.6838 2.44151 23.0001 3.20437 23.0001 4V12Z" fill="#1A1A1A"/>
</svg>
