<svg width="24" height="24" viewBox="0 0 24 24" fill="none" xmlns="http://www.w3.org/2000/svg">
<path d="M12.0098 19.0002C12.562 19.0002 13.0098 19.448 13.0098 20.0002C13.0096 20.5524 12.5619 21.0002 12.0098 21.0002H12C11.4478 21.0002 11.0002 20.5524 11 20.0002C11 19.448 11.4477 19.0002 12 19.0002H12.0098ZM12 13.9993C13.5705 13.9993 15.0786 14.6157 16.2002 15.7151C16.5943 16.1017 16.6004 16.7348 16.2139 17.1292C15.8272 17.5233 15.1941 17.5293 14.7998 17.1428C14.0521 16.41 13.0469 15.9993 12 15.9993C10.9531 15.9993 9.94788 16.41 9.20019 17.1428C8.80586 17.5293 8.17275 17.5233 7.78612 17.1292C7.39961 16.7348 7.40564 16.1017 7.7998 15.7151C8.92137 14.6157 10.4295 13.9993 12 13.9993ZM12 9.00024C14.8793 9.00024 17.644 10.1293 19.7002 12.1448C20.0945 12.5314 20.1004 13.1645 19.7139 13.5588C19.3273 13.9531 18.6942 13.9599 18.2998 13.5735C16.6174 11.9244 14.3558 11.0002 12 11.0002C9.64422 11.0002 7.38255 11.9244 5.70019 13.5735C5.3058 13.9599 4.67269 13.9531 4.28612 13.5588C3.89956 13.1645 3.90549 12.5314 4.2998 12.1448C6.35601 10.1293 9.12071 9.00024 12 9.00024ZM12 4.00024C15.9356 4.00024 19.7335 5.4507 22.667 8.07446C23.0785 8.44267 23.1133 9.07497 22.7451 9.48657C22.3769 9.8981 21.7446 9.9338 21.333 9.56567C18.7662 7.26988 15.4437 6.00024 12 6.00024C8.55631 6.00024 5.23375 7.26988 2.66698 9.56567C2.25537 9.9338 1.62307 9.8981 1.25487 9.48657C0.886725 9.07497 0.921481 8.44267 1.333 8.07446C4.26645 5.4507 8.06435 4.00024 12 4.00024Z" fill="#1A1A1A"/>
</svg>
