<svg width="24" height="24" viewBox="0 0 24 24" fill="none" xmlns="http://www.w3.org/2000/svg">
<path d="M13.9439 1.30383C15.2149 0.913847 16.5711 0.893772 17.853 1.24621L17.8521 1.24719C19.1612 1.60589 19.2776 3.13541 18.5152 3.90051L18.5142 3.90246L15.4136 6.99914L16.9995 8.58508L20.0991 5.48742C20.8651 4.72029 22.3951 4.84236 22.7534 6.14758L22.815 6.38879C23.1018 7.59879 23.0614 8.86505 22.6958 10.0568C22.3058 11.3278 21.562 12.4616 20.5513 13.3253C19.5404 14.189 18.3042 14.7468 16.9878 14.9337C15.9052 15.0875 14.8054 14.984 13.7749 14.6378L6.32668 22.087C5.74129 22.6722 4.94733 23.0012 4.11964 23.0011C3.29203 23.0009 2.49871 22.6714 1.91359 22.0861C1.3284 21.5007 0.999389 20.7068 0.999527 19.879C0.99976 19.0516 1.3285 18.258 1.91359 17.673L9.36183 10.2238C9.01605 9.19372 8.91324 8.09397 9.06691 7.01184C9.25385 5.69568 9.8118 4.46006 10.6753 3.44934C11.539 2.43852 12.6728 1.69384 13.9439 1.30383ZM16.5571 3.02941C15.8786 2.95294 15.1889 3.01404 14.5308 3.21594C13.6228 3.49451 12.8128 4.02613 12.1958 4.74816C11.579 5.47012 11.1809 6.35294 11.0474 7.29309C10.9139 8.23336 11.0504 9.1925 11.4419 10.0577C11.6135 10.4369 11.5321 10.8826 11.2378 11.1769L3.32765 19.087C3.11747 19.2972 2.99958 19.5828 2.99953 19.88C2.99955 20.1771 3.11768 20.4618 3.32765 20.672C3.53784 20.8822 3.82332 21.001 4.12062 21.0011C4.41764 21.0011 4.70246 20.8829 4.91261 20.673L12.8228 12.7628L12.94 12.6622C13.2275 12.452 13.6102 12.4088 13.9419 12.5587C14.8071 12.9502 15.7663 13.0877 16.7066 12.9542C17.6468 12.8207 18.5295 12.4217 19.2515 11.8048C19.9735 11.1879 20.5051 10.3778 20.7837 9.46984C20.9855 8.812 21.0456 8.12276 20.9693 7.44445L18.3999 10.0138C18.0261 10.3802 17.523 10.5861 16.9995 10.5861C16.4762 10.5859 15.9739 10.3801 15.6001 10.0138L13.9927 8.40734L13.9859 8.39953C13.6196 8.02574 13.4146 7.52346 13.4146 7.00012C13.4146 6.47661 13.6194 5.97358 13.9859 5.59973L16.5571 3.02941Z" fill="#1A1A1A"/>
</svg>
