<svg width="24" height="24" viewBox="0 0 24 24" fill="none" xmlns="http://www.w3.org/2000/svg">
<path d="M13.2251 1.02271C13.518 0.968554 13.8195 1.00233 14.0913 1.11939L14.2056 1.17506L14.315 1.23951C14.5276 1.37763 14.7014 1.56758 14.8208 1.79127L14.8765 1.90553L14.9214 2.02467C15.0146 2.30522 15.0227 2.60793 14.9439 2.89478C14.9403 2.90772 14.9372 2.92106 14.9331 2.93385L13.0132 8.95338L12.9966 9.00025H19.9995C20.377 8.99952 20.7472 9.10523 21.0669 9.30592C21.3874 9.50712 21.6438 9.79562 21.8072 10.137C21.9705 10.4783 22.0342 10.8588 21.9898 11.2346C21.9454 11.6105 21.7946 11.9661 21.5562 12.26C21.5376 12.2829 21.5182 12.3052 21.4976 12.3264L11.5972 22.5266L11.5962 22.5256C11.3775 22.7595 11.0908 22.9194 10.7749 22.9778C10.4404 23.0397 10.0945 22.9859 9.79446 22.8254C9.49446 22.665 9.25781 22.4066 9.12356 22.094C8.98947 21.7815 8.96599 21.4327 9.05618 21.1047L9.06692 21.0657L10.9868 15.0462L11.0034 15.0003H3.99954V14.9993C3.62242 14.9998 3.25259 14.8941 2.93313 14.6936C2.61282 14.4925 2.35623 14.2047 2.1929 13.8635C2.02953 13.5221 1.96587 13.1408 2.01028 12.7649C2.05474 12.3892 2.2055 12.0333 2.44388 11.7395C2.46244 11.7167 2.48196 11.6942 2.50247 11.6731L12.4029 1.47389C12.6216 1.23984 12.9092 1.08117 13.2251 1.02271ZM4.00247 13.0003H10.9995C11.3221 12.9997 11.6401 13.077 11.9263 13.2258C12.2132 13.3751 12.4602 13.5913 12.645 13.8567C12.8299 14.1222 12.9474 14.4293 12.9878 14.7503C13.0261 15.0549 12.9904 15.3629 12.8902 15.6526L12.8931 15.6536L11.6265 19.6243L19.9976 11.0003H12.9995V10.9993C12.6774 10.9997 12.3596 10.9233 12.0738 10.7747C11.7868 10.6254 11.5399 10.4083 11.355 10.1428C11.1703 9.87746 11.0527 9.57105 11.0122 9.25025C10.9738 8.94523 11.0084 8.63604 11.1089 8.34596H11.107L12.3726 4.37428L4.00247 13.0003Z" fill="#1A1A1A"/>
</svg>
